%TF.GenerationSoftware,KiCad,Pcbnew,8.0.7*%
%TF.CreationDate,2024-12-28T17:49:15+01:00*%
%TF.ProjectId,usb-c-power-meter,7573622d-632d-4706-9f77-65722d6d6574,rev?*%
%TF.SameCoordinates,Original*%
%TF.FileFunction,Drillmap*%
%TF.FilePolarity,Positive*%
%FSLAX45Y45*%
G04 Gerber Fmt 4.5, Leading zero omitted, Abs format (unit mm)*
G04 Created by KiCad (PCBNEW 8.0.7) date 2024-12-28 17:49:15*
%MOMM*%
%LPD*%
G01*
G04 APERTURE LIST*
%ADD10C,0.200000*%
%ADD11C,0.100000*%
%ADD12C,0.220000*%
G04 APERTURE END LIST*
D10*
X14020000Y-9620000D02*
X16820000Y-9620000D01*
X16820000Y-12420000D01*
X14020000Y-12420000D01*
X14020000Y-9620000D01*
D11*
X14618000Y-10418500D02*
X14683000Y-10483500D01*
X14683000Y-10418500D02*
X14618000Y-10483500D01*
X14618000Y-10996500D02*
X14683000Y-11061500D01*
X14683000Y-10996500D02*
X14618000Y-11061500D01*
X15098500Y-11757000D02*
X15163500Y-11822000D01*
X15163500Y-11757000D02*
X15098500Y-11822000D01*
X15676500Y-11757000D02*
X15741500Y-11822000D01*
X15741500Y-11757000D02*
X15676500Y-11822000D01*
X16154500Y-10418500D02*
X16219500Y-10483500D01*
X16219500Y-10418500D02*
X16154500Y-10483500D01*
X16154500Y-10996500D02*
X16219500Y-11061500D01*
X16219500Y-10996500D02*
X16154500Y-11061500D01*
D12*
X14330000Y-9820000D02*
G75*
G02*
X14110000Y-9820000I-110000J0D01*
G01*
X14110000Y-9820000D02*
G75*
G02*
X14330000Y-9820000I110000J0D01*
G01*
X14330000Y-12220000D02*
G75*
G02*
X14110000Y-12220000I-110000J0D01*
G01*
X14110000Y-12220000D02*
G75*
G02*
X14330000Y-12220000I110000J0D01*
G01*
X16730000Y-9820000D02*
G75*
G02*
X16510000Y-9820000I-110000J0D01*
G01*
X16510000Y-9820000D02*
G75*
G02*
X16730000Y-9820000I110000J0D01*
G01*
X16730000Y-12220000D02*
G75*
G02*
X16510000Y-12220000I-110000J0D01*
G01*
X16510000Y-12220000D02*
G75*
G02*
X16730000Y-12220000I110000J0D01*
G01*
D10*
X14270777Y-12741484D02*
X14270777Y-12541484D01*
X14270777Y-12541484D02*
X14318396Y-12541484D01*
X14318396Y-12541484D02*
X14346967Y-12551008D01*
X14346967Y-12551008D02*
X14366015Y-12570055D01*
X14366015Y-12570055D02*
X14375539Y-12589103D01*
X14375539Y-12589103D02*
X14385062Y-12627198D01*
X14385062Y-12627198D02*
X14385062Y-12655769D01*
X14385062Y-12655769D02*
X14375539Y-12693865D01*
X14375539Y-12693865D02*
X14366015Y-12712912D01*
X14366015Y-12712912D02*
X14346967Y-12731960D01*
X14346967Y-12731960D02*
X14318396Y-12741484D01*
X14318396Y-12741484D02*
X14270777Y-12741484D01*
X14470777Y-12741484D02*
X14470777Y-12608150D01*
X14470777Y-12646246D02*
X14480301Y-12627198D01*
X14480301Y-12627198D02*
X14489824Y-12617674D01*
X14489824Y-12617674D02*
X14508872Y-12608150D01*
X14508872Y-12608150D02*
X14527920Y-12608150D01*
X14594586Y-12741484D02*
X14594586Y-12608150D01*
X14594586Y-12541484D02*
X14585062Y-12551008D01*
X14585062Y-12551008D02*
X14594586Y-12560531D01*
X14594586Y-12560531D02*
X14604110Y-12551008D01*
X14604110Y-12551008D02*
X14594586Y-12541484D01*
X14594586Y-12541484D02*
X14594586Y-12560531D01*
X14718396Y-12741484D02*
X14699348Y-12731960D01*
X14699348Y-12731960D02*
X14689824Y-12712912D01*
X14689824Y-12712912D02*
X14689824Y-12541484D01*
X14823158Y-12741484D02*
X14804110Y-12731960D01*
X14804110Y-12731960D02*
X14794586Y-12712912D01*
X14794586Y-12712912D02*
X14794586Y-12541484D01*
X15051729Y-12741484D02*
X15051729Y-12541484D01*
X15051729Y-12541484D02*
X15118396Y-12684341D01*
X15118396Y-12684341D02*
X15185062Y-12541484D01*
X15185062Y-12541484D02*
X15185062Y-12741484D01*
X15366015Y-12741484D02*
X15366015Y-12636722D01*
X15366015Y-12636722D02*
X15356491Y-12617674D01*
X15356491Y-12617674D02*
X15337443Y-12608150D01*
X15337443Y-12608150D02*
X15299348Y-12608150D01*
X15299348Y-12608150D02*
X15280301Y-12617674D01*
X15366015Y-12731960D02*
X15346967Y-12741484D01*
X15346967Y-12741484D02*
X15299348Y-12741484D01*
X15299348Y-12741484D02*
X15280301Y-12731960D01*
X15280301Y-12731960D02*
X15270777Y-12712912D01*
X15270777Y-12712912D02*
X15270777Y-12693865D01*
X15270777Y-12693865D02*
X15280301Y-12674817D01*
X15280301Y-12674817D02*
X15299348Y-12665293D01*
X15299348Y-12665293D02*
X15346967Y-12665293D01*
X15346967Y-12665293D02*
X15366015Y-12655769D01*
X15461253Y-12608150D02*
X15461253Y-12808150D01*
X15461253Y-12617674D02*
X15480301Y-12608150D01*
X15480301Y-12608150D02*
X15518396Y-12608150D01*
X15518396Y-12608150D02*
X15537443Y-12617674D01*
X15537443Y-12617674D02*
X15546967Y-12627198D01*
X15546967Y-12627198D02*
X15556491Y-12646246D01*
X15556491Y-12646246D02*
X15556491Y-12703388D01*
X15556491Y-12703388D02*
X15546967Y-12722436D01*
X15546967Y-12722436D02*
X15537443Y-12731960D01*
X15537443Y-12731960D02*
X15518396Y-12741484D01*
X15518396Y-12741484D02*
X15480301Y-12741484D01*
X15480301Y-12741484D02*
X15461253Y-12731960D01*
X15642205Y-12722436D02*
X15651729Y-12731960D01*
X15651729Y-12731960D02*
X15642205Y-12741484D01*
X15642205Y-12741484D02*
X15632682Y-12731960D01*
X15632682Y-12731960D02*
X15642205Y-12722436D01*
X15642205Y-12722436D02*
X15642205Y-12741484D01*
X15642205Y-12617674D02*
X15651729Y-12627198D01*
X15651729Y-12627198D02*
X15642205Y-12636722D01*
X15642205Y-12636722D02*
X15632682Y-12627198D01*
X15632682Y-12627198D02*
X15642205Y-12617674D01*
X15642205Y-12617674D02*
X15642205Y-12636722D01*
D11*
X13945000Y-13037500D02*
X14010000Y-13102500D01*
X14010000Y-13037500D02*
X13945000Y-13102500D01*
D10*
X14308872Y-12961484D02*
X14327920Y-12961484D01*
X14327920Y-12961484D02*
X14346967Y-12971008D01*
X14346967Y-12971008D02*
X14356491Y-12980531D01*
X14356491Y-12980531D02*
X14366015Y-12999579D01*
X14366015Y-12999579D02*
X14375539Y-13037674D01*
X14375539Y-13037674D02*
X14375539Y-13085293D01*
X14375539Y-13085293D02*
X14366015Y-13123388D01*
X14366015Y-13123388D02*
X14356491Y-13142436D01*
X14356491Y-13142436D02*
X14346967Y-13151960D01*
X14346967Y-13151960D02*
X14327920Y-13161484D01*
X14327920Y-13161484D02*
X14308872Y-13161484D01*
X14308872Y-13161484D02*
X14289824Y-13151960D01*
X14289824Y-13151960D02*
X14280301Y-13142436D01*
X14280301Y-13142436D02*
X14270777Y-13123388D01*
X14270777Y-13123388D02*
X14261253Y-13085293D01*
X14261253Y-13085293D02*
X14261253Y-13037674D01*
X14261253Y-13037674D02*
X14270777Y-12999579D01*
X14270777Y-12999579D02*
X14280301Y-12980531D01*
X14280301Y-12980531D02*
X14289824Y-12971008D01*
X14289824Y-12971008D02*
X14308872Y-12961484D01*
X14461253Y-13142436D02*
X14470777Y-13151960D01*
X14470777Y-13151960D02*
X14461253Y-13161484D01*
X14461253Y-13161484D02*
X14451729Y-13151960D01*
X14451729Y-13151960D02*
X14461253Y-13142436D01*
X14461253Y-13142436D02*
X14461253Y-13161484D01*
X14642205Y-12961484D02*
X14604110Y-12961484D01*
X14604110Y-12961484D02*
X14585062Y-12971008D01*
X14585062Y-12971008D02*
X14575539Y-12980531D01*
X14575539Y-12980531D02*
X14556491Y-13009103D01*
X14556491Y-13009103D02*
X14546967Y-13047198D01*
X14546967Y-13047198D02*
X14546967Y-13123388D01*
X14546967Y-13123388D02*
X14556491Y-13142436D01*
X14556491Y-13142436D02*
X14566015Y-13151960D01*
X14566015Y-13151960D02*
X14585062Y-13161484D01*
X14585062Y-13161484D02*
X14623158Y-13161484D01*
X14623158Y-13161484D02*
X14642205Y-13151960D01*
X14642205Y-13151960D02*
X14651729Y-13142436D01*
X14651729Y-13142436D02*
X14661253Y-13123388D01*
X14661253Y-13123388D02*
X14661253Y-13075769D01*
X14661253Y-13075769D02*
X14651729Y-13056722D01*
X14651729Y-13056722D02*
X14642205Y-13047198D01*
X14642205Y-13047198D02*
X14623158Y-13037674D01*
X14623158Y-13037674D02*
X14585062Y-13037674D01*
X14585062Y-13037674D02*
X14566015Y-13047198D01*
X14566015Y-13047198D02*
X14556491Y-13056722D01*
X14556491Y-13056722D02*
X14546967Y-13075769D01*
X14842205Y-12961484D02*
X14746967Y-12961484D01*
X14746967Y-12961484D02*
X14737443Y-13056722D01*
X14737443Y-13056722D02*
X14746967Y-13047198D01*
X14746967Y-13047198D02*
X14766015Y-13037674D01*
X14766015Y-13037674D02*
X14813634Y-13037674D01*
X14813634Y-13037674D02*
X14832682Y-13047198D01*
X14832682Y-13047198D02*
X14842205Y-13056722D01*
X14842205Y-13056722D02*
X14851729Y-13075769D01*
X14851729Y-13075769D02*
X14851729Y-13123388D01*
X14851729Y-13123388D02*
X14842205Y-13142436D01*
X14842205Y-13142436D02*
X14832682Y-13151960D01*
X14832682Y-13151960D02*
X14813634Y-13161484D01*
X14813634Y-13161484D02*
X14766015Y-13161484D01*
X14766015Y-13161484D02*
X14746967Y-13151960D01*
X14746967Y-13151960D02*
X14737443Y-13142436D01*
X14975539Y-12961484D02*
X14994586Y-12961484D01*
X14994586Y-12961484D02*
X15013634Y-12971008D01*
X15013634Y-12971008D02*
X15023158Y-12980531D01*
X15023158Y-12980531D02*
X15032682Y-12999579D01*
X15032682Y-12999579D02*
X15042205Y-13037674D01*
X15042205Y-13037674D02*
X15042205Y-13085293D01*
X15042205Y-13085293D02*
X15032682Y-13123388D01*
X15032682Y-13123388D02*
X15023158Y-13142436D01*
X15023158Y-13142436D02*
X15013634Y-13151960D01*
X15013634Y-13151960D02*
X14994586Y-13161484D01*
X14994586Y-13161484D02*
X14975539Y-13161484D01*
X14975539Y-13161484D02*
X14956491Y-13151960D01*
X14956491Y-13151960D02*
X14946967Y-13142436D01*
X14946967Y-13142436D02*
X14937443Y-13123388D01*
X14937443Y-13123388D02*
X14927920Y-13085293D01*
X14927920Y-13085293D02*
X14927920Y-13037674D01*
X14927920Y-13037674D02*
X14937443Y-12999579D01*
X14937443Y-12999579D02*
X14946967Y-12980531D01*
X14946967Y-12980531D02*
X14956491Y-12971008D01*
X14956491Y-12971008D02*
X14975539Y-12961484D01*
X15127920Y-13161484D02*
X15127920Y-13028150D01*
X15127920Y-13047198D02*
X15137443Y-13037674D01*
X15137443Y-13037674D02*
X15156491Y-13028150D01*
X15156491Y-13028150D02*
X15185063Y-13028150D01*
X15185063Y-13028150D02*
X15204110Y-13037674D01*
X15204110Y-13037674D02*
X15213634Y-13056722D01*
X15213634Y-13056722D02*
X15213634Y-13161484D01*
X15213634Y-13056722D02*
X15223158Y-13037674D01*
X15223158Y-13037674D02*
X15242205Y-13028150D01*
X15242205Y-13028150D02*
X15270777Y-13028150D01*
X15270777Y-13028150D02*
X15289824Y-13037674D01*
X15289824Y-13037674D02*
X15299348Y-13056722D01*
X15299348Y-13056722D02*
X15299348Y-13161484D01*
X15394586Y-13161484D02*
X15394586Y-13028150D01*
X15394586Y-13047198D02*
X15404110Y-13037674D01*
X15404110Y-13037674D02*
X15423158Y-13028150D01*
X15423158Y-13028150D02*
X15451729Y-13028150D01*
X15451729Y-13028150D02*
X15470777Y-13037674D01*
X15470777Y-13037674D02*
X15480301Y-13056722D01*
X15480301Y-13056722D02*
X15480301Y-13161484D01*
X15480301Y-13056722D02*
X15489824Y-13037674D01*
X15489824Y-13037674D02*
X15508872Y-13028150D01*
X15508872Y-13028150D02*
X15537443Y-13028150D01*
X15537443Y-13028150D02*
X15556491Y-13037674D01*
X15556491Y-13037674D02*
X15566015Y-13056722D01*
X15566015Y-13056722D02*
X15566015Y-13161484D01*
X15956491Y-12951960D02*
X15785063Y-13209103D01*
X16213634Y-12961484D02*
X16232682Y-12961484D01*
X16232682Y-12961484D02*
X16251729Y-12971008D01*
X16251729Y-12971008D02*
X16261253Y-12980531D01*
X16261253Y-12980531D02*
X16270777Y-12999579D01*
X16270777Y-12999579D02*
X16280301Y-13037674D01*
X16280301Y-13037674D02*
X16280301Y-13085293D01*
X16280301Y-13085293D02*
X16270777Y-13123388D01*
X16270777Y-13123388D02*
X16261253Y-13142436D01*
X16261253Y-13142436D02*
X16251729Y-13151960D01*
X16251729Y-13151960D02*
X16232682Y-13161484D01*
X16232682Y-13161484D02*
X16213634Y-13161484D01*
X16213634Y-13161484D02*
X16194586Y-13151960D01*
X16194586Y-13151960D02*
X16185063Y-13142436D01*
X16185063Y-13142436D02*
X16175539Y-13123388D01*
X16175539Y-13123388D02*
X16166015Y-13085293D01*
X16166015Y-13085293D02*
X16166015Y-13037674D01*
X16166015Y-13037674D02*
X16175539Y-12999579D01*
X16175539Y-12999579D02*
X16185063Y-12980531D01*
X16185063Y-12980531D02*
X16194586Y-12971008D01*
X16194586Y-12971008D02*
X16213634Y-12961484D01*
X16366015Y-13142436D02*
X16375539Y-13151960D01*
X16375539Y-13151960D02*
X16366015Y-13161484D01*
X16366015Y-13161484D02*
X16356491Y-13151960D01*
X16356491Y-13151960D02*
X16366015Y-13142436D01*
X16366015Y-13142436D02*
X16366015Y-13161484D01*
X16499348Y-12961484D02*
X16518396Y-12961484D01*
X16518396Y-12961484D02*
X16537444Y-12971008D01*
X16537444Y-12971008D02*
X16546967Y-12980531D01*
X16546967Y-12980531D02*
X16556491Y-12999579D01*
X16556491Y-12999579D02*
X16566015Y-13037674D01*
X16566015Y-13037674D02*
X16566015Y-13085293D01*
X16566015Y-13085293D02*
X16556491Y-13123388D01*
X16556491Y-13123388D02*
X16546967Y-13142436D01*
X16546967Y-13142436D02*
X16537444Y-13151960D01*
X16537444Y-13151960D02*
X16518396Y-13161484D01*
X16518396Y-13161484D02*
X16499348Y-13161484D01*
X16499348Y-13161484D02*
X16480301Y-13151960D01*
X16480301Y-13151960D02*
X16470777Y-13142436D01*
X16470777Y-13142436D02*
X16461253Y-13123388D01*
X16461253Y-13123388D02*
X16451729Y-13085293D01*
X16451729Y-13085293D02*
X16451729Y-13037674D01*
X16451729Y-13037674D02*
X16461253Y-12999579D01*
X16461253Y-12999579D02*
X16470777Y-12980531D01*
X16470777Y-12980531D02*
X16480301Y-12971008D01*
X16480301Y-12971008D02*
X16499348Y-12961484D01*
X16642206Y-12980531D02*
X16651729Y-12971008D01*
X16651729Y-12971008D02*
X16670777Y-12961484D01*
X16670777Y-12961484D02*
X16718396Y-12961484D01*
X16718396Y-12961484D02*
X16737444Y-12971008D01*
X16737444Y-12971008D02*
X16746967Y-12980531D01*
X16746967Y-12980531D02*
X16756491Y-12999579D01*
X16756491Y-12999579D02*
X16756491Y-13018627D01*
X16756491Y-13018627D02*
X16746967Y-13047198D01*
X16746967Y-13047198D02*
X16632682Y-13161484D01*
X16632682Y-13161484D02*
X16756491Y-13161484D01*
X16937444Y-12961484D02*
X16842206Y-12961484D01*
X16842206Y-12961484D02*
X16832682Y-13056722D01*
X16832682Y-13056722D02*
X16842206Y-13047198D01*
X16842206Y-13047198D02*
X16861253Y-13037674D01*
X16861253Y-13037674D02*
X16908872Y-13037674D01*
X16908872Y-13037674D02*
X16927920Y-13047198D01*
X16927920Y-13047198D02*
X16937444Y-13056722D01*
X16937444Y-13056722D02*
X16946968Y-13075769D01*
X16946968Y-13075769D02*
X16946968Y-13123388D01*
X16946968Y-13123388D02*
X16937444Y-13142436D01*
X16937444Y-13142436D02*
X16927920Y-13151960D01*
X16927920Y-13151960D02*
X16908872Y-13161484D01*
X16908872Y-13161484D02*
X16861253Y-13161484D01*
X16861253Y-13161484D02*
X16842206Y-13151960D01*
X16842206Y-13151960D02*
X16832682Y-13142436D01*
X17118396Y-12961484D02*
X17080301Y-12961484D01*
X17080301Y-12961484D02*
X17061253Y-12971008D01*
X17061253Y-12971008D02*
X17051729Y-12980531D01*
X17051729Y-12980531D02*
X17032682Y-13009103D01*
X17032682Y-13009103D02*
X17023158Y-13047198D01*
X17023158Y-13047198D02*
X17023158Y-13123388D01*
X17023158Y-13123388D02*
X17032682Y-13142436D01*
X17032682Y-13142436D02*
X17042206Y-13151960D01*
X17042206Y-13151960D02*
X17061253Y-13161484D01*
X17061253Y-13161484D02*
X17099349Y-13161484D01*
X17099349Y-13161484D02*
X17118396Y-13151960D01*
X17118396Y-13151960D02*
X17127920Y-13142436D01*
X17127920Y-13142436D02*
X17137444Y-13123388D01*
X17137444Y-13123388D02*
X17137444Y-13075769D01*
X17137444Y-13075769D02*
X17127920Y-13056722D01*
X17127920Y-13056722D02*
X17118396Y-13047198D01*
X17118396Y-13047198D02*
X17099349Y-13037674D01*
X17099349Y-13037674D02*
X17061253Y-13037674D01*
X17061253Y-13037674D02*
X17042206Y-13047198D01*
X17042206Y-13047198D02*
X17032682Y-13056722D01*
X17032682Y-13056722D02*
X17023158Y-13075769D01*
X17213634Y-12961484D02*
X17213634Y-12999579D01*
X17289825Y-12961484D02*
X17289825Y-12999579D01*
X17585063Y-13237674D02*
X17575539Y-13228150D01*
X17575539Y-13228150D02*
X17556491Y-13199579D01*
X17556491Y-13199579D02*
X17546968Y-13180531D01*
X17546968Y-13180531D02*
X17537444Y-13151960D01*
X17537444Y-13151960D02*
X17527920Y-13104341D01*
X17527920Y-13104341D02*
X17527920Y-13066246D01*
X17527920Y-13066246D02*
X17537444Y-13018627D01*
X17537444Y-13018627D02*
X17546968Y-12990055D01*
X17546968Y-12990055D02*
X17556491Y-12971008D01*
X17556491Y-12971008D02*
X17575539Y-12942436D01*
X17575539Y-12942436D02*
X17585063Y-12932912D01*
X17746968Y-12961484D02*
X17708872Y-12961484D01*
X17708872Y-12961484D02*
X17689825Y-12971008D01*
X17689825Y-12971008D02*
X17680301Y-12980531D01*
X17680301Y-12980531D02*
X17661253Y-13009103D01*
X17661253Y-13009103D02*
X17651730Y-13047198D01*
X17651730Y-13047198D02*
X17651730Y-13123388D01*
X17651730Y-13123388D02*
X17661253Y-13142436D01*
X17661253Y-13142436D02*
X17670777Y-13151960D01*
X17670777Y-13151960D02*
X17689825Y-13161484D01*
X17689825Y-13161484D02*
X17727920Y-13161484D01*
X17727920Y-13161484D02*
X17746968Y-13151960D01*
X17746968Y-13151960D02*
X17756491Y-13142436D01*
X17756491Y-13142436D02*
X17766015Y-13123388D01*
X17766015Y-13123388D02*
X17766015Y-13075769D01*
X17766015Y-13075769D02*
X17756491Y-13056722D01*
X17756491Y-13056722D02*
X17746968Y-13047198D01*
X17746968Y-13047198D02*
X17727920Y-13037674D01*
X17727920Y-13037674D02*
X17689825Y-13037674D01*
X17689825Y-13037674D02*
X17670777Y-13047198D01*
X17670777Y-13047198D02*
X17661253Y-13056722D01*
X17661253Y-13056722D02*
X17651730Y-13075769D01*
X18004111Y-13161484D02*
X18004111Y-12961484D01*
X18089825Y-13161484D02*
X18089825Y-13056722D01*
X18089825Y-13056722D02*
X18080301Y-13037674D01*
X18080301Y-13037674D02*
X18061253Y-13028150D01*
X18061253Y-13028150D02*
X18032682Y-13028150D01*
X18032682Y-13028150D02*
X18013634Y-13037674D01*
X18013634Y-13037674D02*
X18004111Y-13047198D01*
X18213634Y-13161484D02*
X18194587Y-13151960D01*
X18194587Y-13151960D02*
X18185063Y-13142436D01*
X18185063Y-13142436D02*
X18175539Y-13123388D01*
X18175539Y-13123388D02*
X18175539Y-13066246D01*
X18175539Y-13066246D02*
X18185063Y-13047198D01*
X18185063Y-13047198D02*
X18194587Y-13037674D01*
X18194587Y-13037674D02*
X18213634Y-13028150D01*
X18213634Y-13028150D02*
X18242206Y-13028150D01*
X18242206Y-13028150D02*
X18261253Y-13037674D01*
X18261253Y-13037674D02*
X18270777Y-13047198D01*
X18270777Y-13047198D02*
X18280301Y-13066246D01*
X18280301Y-13066246D02*
X18280301Y-13123388D01*
X18280301Y-13123388D02*
X18270777Y-13142436D01*
X18270777Y-13142436D02*
X18261253Y-13151960D01*
X18261253Y-13151960D02*
X18242206Y-13161484D01*
X18242206Y-13161484D02*
X18213634Y-13161484D01*
X18394587Y-13161484D02*
X18375539Y-13151960D01*
X18375539Y-13151960D02*
X18366015Y-13132912D01*
X18366015Y-13132912D02*
X18366015Y-12961484D01*
X18546968Y-13151960D02*
X18527920Y-13161484D01*
X18527920Y-13161484D02*
X18489825Y-13161484D01*
X18489825Y-13161484D02*
X18470777Y-13151960D01*
X18470777Y-13151960D02*
X18461253Y-13132912D01*
X18461253Y-13132912D02*
X18461253Y-13056722D01*
X18461253Y-13056722D02*
X18470777Y-13037674D01*
X18470777Y-13037674D02*
X18489825Y-13028150D01*
X18489825Y-13028150D02*
X18527920Y-13028150D01*
X18527920Y-13028150D02*
X18546968Y-13037674D01*
X18546968Y-13037674D02*
X18556492Y-13056722D01*
X18556492Y-13056722D02*
X18556492Y-13075769D01*
X18556492Y-13075769D02*
X18461253Y-13094817D01*
X18632682Y-13151960D02*
X18651730Y-13161484D01*
X18651730Y-13161484D02*
X18689825Y-13161484D01*
X18689825Y-13161484D02*
X18708873Y-13151960D01*
X18708873Y-13151960D02*
X18718396Y-13132912D01*
X18718396Y-13132912D02*
X18718396Y-13123388D01*
X18718396Y-13123388D02*
X18708873Y-13104341D01*
X18708873Y-13104341D02*
X18689825Y-13094817D01*
X18689825Y-13094817D02*
X18661253Y-13094817D01*
X18661253Y-13094817D02*
X18642206Y-13085293D01*
X18642206Y-13085293D02*
X18632682Y-13066246D01*
X18632682Y-13066246D02*
X18632682Y-13056722D01*
X18632682Y-13056722D02*
X18642206Y-13037674D01*
X18642206Y-13037674D02*
X18661253Y-13028150D01*
X18661253Y-13028150D02*
X18689825Y-13028150D01*
X18689825Y-13028150D02*
X18708873Y-13037674D01*
X18785063Y-13237674D02*
X18794587Y-13228150D01*
X18794587Y-13228150D02*
X18813634Y-13199579D01*
X18813634Y-13199579D02*
X18823158Y-13180531D01*
X18823158Y-13180531D02*
X18832682Y-13151960D01*
X18832682Y-13151960D02*
X18842206Y-13104341D01*
X18842206Y-13104341D02*
X18842206Y-13066246D01*
X18842206Y-13066246D02*
X18832682Y-13018627D01*
X18832682Y-13018627D02*
X18823158Y-12990055D01*
X18823158Y-12990055D02*
X18813634Y-12971008D01*
X18813634Y-12971008D02*
X18794587Y-12942436D01*
X18794587Y-12942436D02*
X18785063Y-12932912D01*
X19146968Y-13237674D02*
X19137444Y-13228150D01*
X19137444Y-13228150D02*
X19118396Y-13199579D01*
X19118396Y-13199579D02*
X19108873Y-13180531D01*
X19108873Y-13180531D02*
X19099349Y-13151960D01*
X19099349Y-13151960D02*
X19089825Y-13104341D01*
X19089825Y-13104341D02*
X19089825Y-13066246D01*
X19089825Y-13066246D02*
X19099349Y-13018627D01*
X19099349Y-13018627D02*
X19108873Y-12990055D01*
X19108873Y-12990055D02*
X19118396Y-12971008D01*
X19118396Y-12971008D02*
X19137444Y-12942436D01*
X19137444Y-12942436D02*
X19146968Y-12932912D01*
X19223158Y-13028150D02*
X19223158Y-13161484D01*
X19223158Y-13047198D02*
X19232682Y-13037674D01*
X19232682Y-13037674D02*
X19251730Y-13028150D01*
X19251730Y-13028150D02*
X19280301Y-13028150D01*
X19280301Y-13028150D02*
X19299349Y-13037674D01*
X19299349Y-13037674D02*
X19308873Y-13056722D01*
X19308873Y-13056722D02*
X19308873Y-13161484D01*
X19432682Y-13161484D02*
X19413634Y-13151960D01*
X19413634Y-13151960D02*
X19404111Y-13142436D01*
X19404111Y-13142436D02*
X19394587Y-13123388D01*
X19394587Y-13123388D02*
X19394587Y-13066246D01*
X19394587Y-13066246D02*
X19404111Y-13047198D01*
X19404111Y-13047198D02*
X19413634Y-13037674D01*
X19413634Y-13037674D02*
X19432682Y-13028150D01*
X19432682Y-13028150D02*
X19461254Y-13028150D01*
X19461254Y-13028150D02*
X19480301Y-13037674D01*
X19480301Y-13037674D02*
X19489825Y-13047198D01*
X19489825Y-13047198D02*
X19499349Y-13066246D01*
X19499349Y-13066246D02*
X19499349Y-13123388D01*
X19499349Y-13123388D02*
X19489825Y-13142436D01*
X19489825Y-13142436D02*
X19480301Y-13151960D01*
X19480301Y-13151960D02*
X19461254Y-13161484D01*
X19461254Y-13161484D02*
X19432682Y-13161484D01*
X19556492Y-13028150D02*
X19632682Y-13028150D01*
X19585063Y-12961484D02*
X19585063Y-13132912D01*
X19585063Y-13132912D02*
X19594587Y-13151960D01*
X19594587Y-13151960D02*
X19613634Y-13161484D01*
X19613634Y-13161484D02*
X19632682Y-13161484D01*
X19851730Y-13028150D02*
X19851730Y-13228150D01*
X19851730Y-13037674D02*
X19870777Y-13028150D01*
X19870777Y-13028150D02*
X19908873Y-13028150D01*
X19908873Y-13028150D02*
X19927920Y-13037674D01*
X19927920Y-13037674D02*
X19937444Y-13047198D01*
X19937444Y-13047198D02*
X19946968Y-13066246D01*
X19946968Y-13066246D02*
X19946968Y-13123388D01*
X19946968Y-13123388D02*
X19937444Y-13142436D01*
X19937444Y-13142436D02*
X19927920Y-13151960D01*
X19927920Y-13151960D02*
X19908873Y-13161484D01*
X19908873Y-13161484D02*
X19870777Y-13161484D01*
X19870777Y-13161484D02*
X19851730Y-13151960D01*
X20061254Y-13161484D02*
X20042206Y-13151960D01*
X20042206Y-13151960D02*
X20032682Y-13132912D01*
X20032682Y-13132912D02*
X20032682Y-12961484D01*
X20223158Y-13161484D02*
X20223158Y-13056722D01*
X20223158Y-13056722D02*
X20213635Y-13037674D01*
X20213635Y-13037674D02*
X20194587Y-13028150D01*
X20194587Y-13028150D02*
X20156492Y-13028150D01*
X20156492Y-13028150D02*
X20137444Y-13037674D01*
X20223158Y-13151960D02*
X20204111Y-13161484D01*
X20204111Y-13161484D02*
X20156492Y-13161484D01*
X20156492Y-13161484D02*
X20137444Y-13151960D01*
X20137444Y-13151960D02*
X20127920Y-13132912D01*
X20127920Y-13132912D02*
X20127920Y-13113865D01*
X20127920Y-13113865D02*
X20137444Y-13094817D01*
X20137444Y-13094817D02*
X20156492Y-13085293D01*
X20156492Y-13085293D02*
X20204111Y-13085293D01*
X20204111Y-13085293D02*
X20223158Y-13075769D01*
X20289825Y-13028150D02*
X20366015Y-13028150D01*
X20318396Y-12961484D02*
X20318396Y-13132912D01*
X20318396Y-13132912D02*
X20327920Y-13151960D01*
X20327920Y-13151960D02*
X20346968Y-13161484D01*
X20346968Y-13161484D02*
X20366015Y-13161484D01*
X20508873Y-13151960D02*
X20489825Y-13161484D01*
X20489825Y-13161484D02*
X20451730Y-13161484D01*
X20451730Y-13161484D02*
X20432682Y-13151960D01*
X20432682Y-13151960D02*
X20423158Y-13132912D01*
X20423158Y-13132912D02*
X20423158Y-13056722D01*
X20423158Y-13056722D02*
X20432682Y-13037674D01*
X20432682Y-13037674D02*
X20451730Y-13028150D01*
X20451730Y-13028150D02*
X20489825Y-13028150D01*
X20489825Y-13028150D02*
X20508873Y-13037674D01*
X20508873Y-13037674D02*
X20518396Y-13056722D01*
X20518396Y-13056722D02*
X20518396Y-13075769D01*
X20518396Y-13075769D02*
X20423158Y-13094817D01*
X20689825Y-13161484D02*
X20689825Y-12961484D01*
X20689825Y-13151960D02*
X20670777Y-13161484D01*
X20670777Y-13161484D02*
X20632682Y-13161484D01*
X20632682Y-13161484D02*
X20613635Y-13151960D01*
X20613635Y-13151960D02*
X20604111Y-13142436D01*
X20604111Y-13142436D02*
X20594587Y-13123388D01*
X20594587Y-13123388D02*
X20594587Y-13066246D01*
X20594587Y-13066246D02*
X20604111Y-13047198D01*
X20604111Y-13047198D02*
X20613635Y-13037674D01*
X20613635Y-13037674D02*
X20632682Y-13028150D01*
X20632682Y-13028150D02*
X20670777Y-13028150D01*
X20670777Y-13028150D02*
X20689825Y-13037674D01*
X20766016Y-13237674D02*
X20775539Y-13228150D01*
X20775539Y-13228150D02*
X20794587Y-13199579D01*
X20794587Y-13199579D02*
X20804111Y-13180531D01*
X20804111Y-13180531D02*
X20813635Y-13151960D01*
X20813635Y-13151960D02*
X20823158Y-13104341D01*
X20823158Y-13104341D02*
X20823158Y-13066246D01*
X20823158Y-13066246D02*
X20813635Y-13018627D01*
X20813635Y-13018627D02*
X20804111Y-12990055D01*
X20804111Y-12990055D02*
X20794587Y-12971008D01*
X20794587Y-12971008D02*
X20775539Y-12942436D01*
X20775539Y-12942436D02*
X20766016Y-12932912D01*
X14010000Y-13334000D02*
G75*
G02*
X13810000Y-13334000I-100000J0D01*
G01*
X13810000Y-13334000D02*
G75*
G02*
X14010000Y-13334000I100000J0D01*
G01*
X14261253Y-13244531D02*
X14270777Y-13235008D01*
X14270777Y-13235008D02*
X14289824Y-13225484D01*
X14289824Y-13225484D02*
X14337443Y-13225484D01*
X14337443Y-13225484D02*
X14356491Y-13235008D01*
X14356491Y-13235008D02*
X14366015Y-13244531D01*
X14366015Y-13244531D02*
X14375539Y-13263579D01*
X14375539Y-13263579D02*
X14375539Y-13282627D01*
X14375539Y-13282627D02*
X14366015Y-13311198D01*
X14366015Y-13311198D02*
X14251729Y-13425484D01*
X14251729Y-13425484D02*
X14375539Y-13425484D01*
X14461253Y-13406436D02*
X14470777Y-13415960D01*
X14470777Y-13415960D02*
X14461253Y-13425484D01*
X14461253Y-13425484D02*
X14451729Y-13415960D01*
X14451729Y-13415960D02*
X14461253Y-13406436D01*
X14461253Y-13406436D02*
X14461253Y-13425484D01*
X14546967Y-13244531D02*
X14556491Y-13235008D01*
X14556491Y-13235008D02*
X14575539Y-13225484D01*
X14575539Y-13225484D02*
X14623158Y-13225484D01*
X14623158Y-13225484D02*
X14642205Y-13235008D01*
X14642205Y-13235008D02*
X14651729Y-13244531D01*
X14651729Y-13244531D02*
X14661253Y-13263579D01*
X14661253Y-13263579D02*
X14661253Y-13282627D01*
X14661253Y-13282627D02*
X14651729Y-13311198D01*
X14651729Y-13311198D02*
X14537443Y-13425484D01*
X14537443Y-13425484D02*
X14661253Y-13425484D01*
X14785062Y-13225484D02*
X14804110Y-13225484D01*
X14804110Y-13225484D02*
X14823158Y-13235008D01*
X14823158Y-13235008D02*
X14832682Y-13244531D01*
X14832682Y-13244531D02*
X14842205Y-13263579D01*
X14842205Y-13263579D02*
X14851729Y-13301674D01*
X14851729Y-13301674D02*
X14851729Y-13349293D01*
X14851729Y-13349293D02*
X14842205Y-13387388D01*
X14842205Y-13387388D02*
X14832682Y-13406436D01*
X14832682Y-13406436D02*
X14823158Y-13415960D01*
X14823158Y-13415960D02*
X14804110Y-13425484D01*
X14804110Y-13425484D02*
X14785062Y-13425484D01*
X14785062Y-13425484D02*
X14766015Y-13415960D01*
X14766015Y-13415960D02*
X14756491Y-13406436D01*
X14756491Y-13406436D02*
X14746967Y-13387388D01*
X14746967Y-13387388D02*
X14737443Y-13349293D01*
X14737443Y-13349293D02*
X14737443Y-13301674D01*
X14737443Y-13301674D02*
X14746967Y-13263579D01*
X14746967Y-13263579D02*
X14756491Y-13244531D01*
X14756491Y-13244531D02*
X14766015Y-13235008D01*
X14766015Y-13235008D02*
X14785062Y-13225484D01*
X14975539Y-13225484D02*
X14994586Y-13225484D01*
X14994586Y-13225484D02*
X15013634Y-13235008D01*
X15013634Y-13235008D02*
X15023158Y-13244531D01*
X15023158Y-13244531D02*
X15032682Y-13263579D01*
X15032682Y-13263579D02*
X15042205Y-13301674D01*
X15042205Y-13301674D02*
X15042205Y-13349293D01*
X15042205Y-13349293D02*
X15032682Y-13387388D01*
X15032682Y-13387388D02*
X15023158Y-13406436D01*
X15023158Y-13406436D02*
X15013634Y-13415960D01*
X15013634Y-13415960D02*
X14994586Y-13425484D01*
X14994586Y-13425484D02*
X14975539Y-13425484D01*
X14975539Y-13425484D02*
X14956491Y-13415960D01*
X14956491Y-13415960D02*
X14946967Y-13406436D01*
X14946967Y-13406436D02*
X14937443Y-13387388D01*
X14937443Y-13387388D02*
X14927920Y-13349293D01*
X14927920Y-13349293D02*
X14927920Y-13301674D01*
X14927920Y-13301674D02*
X14937443Y-13263579D01*
X14937443Y-13263579D02*
X14946967Y-13244531D01*
X14946967Y-13244531D02*
X14956491Y-13235008D01*
X14956491Y-13235008D02*
X14975539Y-13225484D01*
X15127920Y-13425484D02*
X15127920Y-13292150D01*
X15127920Y-13311198D02*
X15137443Y-13301674D01*
X15137443Y-13301674D02*
X15156491Y-13292150D01*
X15156491Y-13292150D02*
X15185063Y-13292150D01*
X15185063Y-13292150D02*
X15204110Y-13301674D01*
X15204110Y-13301674D02*
X15213634Y-13320722D01*
X15213634Y-13320722D02*
X15213634Y-13425484D01*
X15213634Y-13320722D02*
X15223158Y-13301674D01*
X15223158Y-13301674D02*
X15242205Y-13292150D01*
X15242205Y-13292150D02*
X15270777Y-13292150D01*
X15270777Y-13292150D02*
X15289824Y-13301674D01*
X15289824Y-13301674D02*
X15299348Y-13320722D01*
X15299348Y-13320722D02*
X15299348Y-13425484D01*
X15394586Y-13425484D02*
X15394586Y-13292150D01*
X15394586Y-13311198D02*
X15404110Y-13301674D01*
X15404110Y-13301674D02*
X15423158Y-13292150D01*
X15423158Y-13292150D02*
X15451729Y-13292150D01*
X15451729Y-13292150D02*
X15470777Y-13301674D01*
X15470777Y-13301674D02*
X15480301Y-13320722D01*
X15480301Y-13320722D02*
X15480301Y-13425484D01*
X15480301Y-13320722D02*
X15489824Y-13301674D01*
X15489824Y-13301674D02*
X15508872Y-13292150D01*
X15508872Y-13292150D02*
X15537443Y-13292150D01*
X15537443Y-13292150D02*
X15556491Y-13301674D01*
X15556491Y-13301674D02*
X15566015Y-13320722D01*
X15566015Y-13320722D02*
X15566015Y-13425484D01*
X15956491Y-13215960D02*
X15785063Y-13473103D01*
X16213634Y-13225484D02*
X16232682Y-13225484D01*
X16232682Y-13225484D02*
X16251729Y-13235008D01*
X16251729Y-13235008D02*
X16261253Y-13244531D01*
X16261253Y-13244531D02*
X16270777Y-13263579D01*
X16270777Y-13263579D02*
X16280301Y-13301674D01*
X16280301Y-13301674D02*
X16280301Y-13349293D01*
X16280301Y-13349293D02*
X16270777Y-13387388D01*
X16270777Y-13387388D02*
X16261253Y-13406436D01*
X16261253Y-13406436D02*
X16251729Y-13415960D01*
X16251729Y-13415960D02*
X16232682Y-13425484D01*
X16232682Y-13425484D02*
X16213634Y-13425484D01*
X16213634Y-13425484D02*
X16194586Y-13415960D01*
X16194586Y-13415960D02*
X16185063Y-13406436D01*
X16185063Y-13406436D02*
X16175539Y-13387388D01*
X16175539Y-13387388D02*
X16166015Y-13349293D01*
X16166015Y-13349293D02*
X16166015Y-13301674D01*
X16166015Y-13301674D02*
X16175539Y-13263579D01*
X16175539Y-13263579D02*
X16185063Y-13244531D01*
X16185063Y-13244531D02*
X16194586Y-13235008D01*
X16194586Y-13235008D02*
X16213634Y-13225484D01*
X16366015Y-13406436D02*
X16375539Y-13415960D01*
X16375539Y-13415960D02*
X16366015Y-13425484D01*
X16366015Y-13425484D02*
X16356491Y-13415960D01*
X16356491Y-13415960D02*
X16366015Y-13406436D01*
X16366015Y-13406436D02*
X16366015Y-13425484D01*
X16499348Y-13225484D02*
X16518396Y-13225484D01*
X16518396Y-13225484D02*
X16537444Y-13235008D01*
X16537444Y-13235008D02*
X16546967Y-13244531D01*
X16546967Y-13244531D02*
X16556491Y-13263579D01*
X16556491Y-13263579D02*
X16566015Y-13301674D01*
X16566015Y-13301674D02*
X16566015Y-13349293D01*
X16566015Y-13349293D02*
X16556491Y-13387388D01*
X16556491Y-13387388D02*
X16546967Y-13406436D01*
X16546967Y-13406436D02*
X16537444Y-13415960D01*
X16537444Y-13415960D02*
X16518396Y-13425484D01*
X16518396Y-13425484D02*
X16499348Y-13425484D01*
X16499348Y-13425484D02*
X16480301Y-13415960D01*
X16480301Y-13415960D02*
X16470777Y-13406436D01*
X16470777Y-13406436D02*
X16461253Y-13387388D01*
X16461253Y-13387388D02*
X16451729Y-13349293D01*
X16451729Y-13349293D02*
X16451729Y-13301674D01*
X16451729Y-13301674D02*
X16461253Y-13263579D01*
X16461253Y-13263579D02*
X16470777Y-13244531D01*
X16470777Y-13244531D02*
X16480301Y-13235008D01*
X16480301Y-13235008D02*
X16499348Y-13225484D01*
X16680301Y-13311198D02*
X16661253Y-13301674D01*
X16661253Y-13301674D02*
X16651729Y-13292150D01*
X16651729Y-13292150D02*
X16642206Y-13273103D01*
X16642206Y-13273103D02*
X16642206Y-13263579D01*
X16642206Y-13263579D02*
X16651729Y-13244531D01*
X16651729Y-13244531D02*
X16661253Y-13235008D01*
X16661253Y-13235008D02*
X16680301Y-13225484D01*
X16680301Y-13225484D02*
X16718396Y-13225484D01*
X16718396Y-13225484D02*
X16737444Y-13235008D01*
X16737444Y-13235008D02*
X16746967Y-13244531D01*
X16746967Y-13244531D02*
X16756491Y-13263579D01*
X16756491Y-13263579D02*
X16756491Y-13273103D01*
X16756491Y-13273103D02*
X16746967Y-13292150D01*
X16746967Y-13292150D02*
X16737444Y-13301674D01*
X16737444Y-13301674D02*
X16718396Y-13311198D01*
X16718396Y-13311198D02*
X16680301Y-13311198D01*
X16680301Y-13311198D02*
X16661253Y-13320722D01*
X16661253Y-13320722D02*
X16651729Y-13330246D01*
X16651729Y-13330246D02*
X16642206Y-13349293D01*
X16642206Y-13349293D02*
X16642206Y-13387388D01*
X16642206Y-13387388D02*
X16651729Y-13406436D01*
X16651729Y-13406436D02*
X16661253Y-13415960D01*
X16661253Y-13415960D02*
X16680301Y-13425484D01*
X16680301Y-13425484D02*
X16718396Y-13425484D01*
X16718396Y-13425484D02*
X16737444Y-13415960D01*
X16737444Y-13415960D02*
X16746967Y-13406436D01*
X16746967Y-13406436D02*
X16756491Y-13387388D01*
X16756491Y-13387388D02*
X16756491Y-13349293D01*
X16756491Y-13349293D02*
X16746967Y-13330246D01*
X16746967Y-13330246D02*
X16737444Y-13320722D01*
X16737444Y-13320722D02*
X16718396Y-13311198D01*
X16927920Y-13225484D02*
X16889825Y-13225484D01*
X16889825Y-13225484D02*
X16870777Y-13235008D01*
X16870777Y-13235008D02*
X16861253Y-13244531D01*
X16861253Y-13244531D02*
X16842206Y-13273103D01*
X16842206Y-13273103D02*
X16832682Y-13311198D01*
X16832682Y-13311198D02*
X16832682Y-13387388D01*
X16832682Y-13387388D02*
X16842206Y-13406436D01*
X16842206Y-13406436D02*
X16851729Y-13415960D01*
X16851729Y-13415960D02*
X16870777Y-13425484D01*
X16870777Y-13425484D02*
X16908872Y-13425484D01*
X16908872Y-13425484D02*
X16927920Y-13415960D01*
X16927920Y-13415960D02*
X16937444Y-13406436D01*
X16937444Y-13406436D02*
X16946968Y-13387388D01*
X16946968Y-13387388D02*
X16946968Y-13339769D01*
X16946968Y-13339769D02*
X16937444Y-13320722D01*
X16937444Y-13320722D02*
X16927920Y-13311198D01*
X16927920Y-13311198D02*
X16908872Y-13301674D01*
X16908872Y-13301674D02*
X16870777Y-13301674D01*
X16870777Y-13301674D02*
X16851729Y-13311198D01*
X16851729Y-13311198D02*
X16842206Y-13320722D01*
X16842206Y-13320722D02*
X16832682Y-13339769D01*
X17118396Y-13225484D02*
X17080301Y-13225484D01*
X17080301Y-13225484D02*
X17061253Y-13235008D01*
X17061253Y-13235008D02*
X17051729Y-13244531D01*
X17051729Y-13244531D02*
X17032682Y-13273103D01*
X17032682Y-13273103D02*
X17023158Y-13311198D01*
X17023158Y-13311198D02*
X17023158Y-13387388D01*
X17023158Y-13387388D02*
X17032682Y-13406436D01*
X17032682Y-13406436D02*
X17042206Y-13415960D01*
X17042206Y-13415960D02*
X17061253Y-13425484D01*
X17061253Y-13425484D02*
X17099349Y-13425484D01*
X17099349Y-13425484D02*
X17118396Y-13415960D01*
X17118396Y-13415960D02*
X17127920Y-13406436D01*
X17127920Y-13406436D02*
X17137444Y-13387388D01*
X17137444Y-13387388D02*
X17137444Y-13339769D01*
X17137444Y-13339769D02*
X17127920Y-13320722D01*
X17127920Y-13320722D02*
X17118396Y-13311198D01*
X17118396Y-13311198D02*
X17099349Y-13301674D01*
X17099349Y-13301674D02*
X17061253Y-13301674D01*
X17061253Y-13301674D02*
X17042206Y-13311198D01*
X17042206Y-13311198D02*
X17032682Y-13320722D01*
X17032682Y-13320722D02*
X17023158Y-13339769D01*
X17213634Y-13225484D02*
X17213634Y-13263579D01*
X17289825Y-13225484D02*
X17289825Y-13263579D01*
X17585063Y-13501674D02*
X17575539Y-13492150D01*
X17575539Y-13492150D02*
X17556491Y-13463579D01*
X17556491Y-13463579D02*
X17546968Y-13444531D01*
X17546968Y-13444531D02*
X17537444Y-13415960D01*
X17537444Y-13415960D02*
X17527920Y-13368341D01*
X17527920Y-13368341D02*
X17527920Y-13330246D01*
X17527920Y-13330246D02*
X17537444Y-13282627D01*
X17537444Y-13282627D02*
X17546968Y-13254055D01*
X17546968Y-13254055D02*
X17556491Y-13235008D01*
X17556491Y-13235008D02*
X17575539Y-13206436D01*
X17575539Y-13206436D02*
X17585063Y-13196912D01*
X17746968Y-13292150D02*
X17746968Y-13425484D01*
X17699349Y-13215960D02*
X17651730Y-13358817D01*
X17651730Y-13358817D02*
X17775539Y-13358817D01*
X18004111Y-13425484D02*
X18004111Y-13225484D01*
X18089825Y-13425484D02*
X18089825Y-13320722D01*
X18089825Y-13320722D02*
X18080301Y-13301674D01*
X18080301Y-13301674D02*
X18061253Y-13292150D01*
X18061253Y-13292150D02*
X18032682Y-13292150D01*
X18032682Y-13292150D02*
X18013634Y-13301674D01*
X18013634Y-13301674D02*
X18004111Y-13311198D01*
X18213634Y-13425484D02*
X18194587Y-13415960D01*
X18194587Y-13415960D02*
X18185063Y-13406436D01*
X18185063Y-13406436D02*
X18175539Y-13387388D01*
X18175539Y-13387388D02*
X18175539Y-13330246D01*
X18175539Y-13330246D02*
X18185063Y-13311198D01*
X18185063Y-13311198D02*
X18194587Y-13301674D01*
X18194587Y-13301674D02*
X18213634Y-13292150D01*
X18213634Y-13292150D02*
X18242206Y-13292150D01*
X18242206Y-13292150D02*
X18261253Y-13301674D01*
X18261253Y-13301674D02*
X18270777Y-13311198D01*
X18270777Y-13311198D02*
X18280301Y-13330246D01*
X18280301Y-13330246D02*
X18280301Y-13387388D01*
X18280301Y-13387388D02*
X18270777Y-13406436D01*
X18270777Y-13406436D02*
X18261253Y-13415960D01*
X18261253Y-13415960D02*
X18242206Y-13425484D01*
X18242206Y-13425484D02*
X18213634Y-13425484D01*
X18394587Y-13425484D02*
X18375539Y-13415960D01*
X18375539Y-13415960D02*
X18366015Y-13396912D01*
X18366015Y-13396912D02*
X18366015Y-13225484D01*
X18546968Y-13415960D02*
X18527920Y-13425484D01*
X18527920Y-13425484D02*
X18489825Y-13425484D01*
X18489825Y-13425484D02*
X18470777Y-13415960D01*
X18470777Y-13415960D02*
X18461253Y-13396912D01*
X18461253Y-13396912D02*
X18461253Y-13320722D01*
X18461253Y-13320722D02*
X18470777Y-13301674D01*
X18470777Y-13301674D02*
X18489825Y-13292150D01*
X18489825Y-13292150D02*
X18527920Y-13292150D01*
X18527920Y-13292150D02*
X18546968Y-13301674D01*
X18546968Y-13301674D02*
X18556492Y-13320722D01*
X18556492Y-13320722D02*
X18556492Y-13339769D01*
X18556492Y-13339769D02*
X18461253Y-13358817D01*
X18632682Y-13415960D02*
X18651730Y-13425484D01*
X18651730Y-13425484D02*
X18689825Y-13425484D01*
X18689825Y-13425484D02*
X18708873Y-13415960D01*
X18708873Y-13415960D02*
X18718396Y-13396912D01*
X18718396Y-13396912D02*
X18718396Y-13387388D01*
X18718396Y-13387388D02*
X18708873Y-13368341D01*
X18708873Y-13368341D02*
X18689825Y-13358817D01*
X18689825Y-13358817D02*
X18661253Y-13358817D01*
X18661253Y-13358817D02*
X18642206Y-13349293D01*
X18642206Y-13349293D02*
X18632682Y-13330246D01*
X18632682Y-13330246D02*
X18632682Y-13320722D01*
X18632682Y-13320722D02*
X18642206Y-13301674D01*
X18642206Y-13301674D02*
X18661253Y-13292150D01*
X18661253Y-13292150D02*
X18689825Y-13292150D01*
X18689825Y-13292150D02*
X18708873Y-13301674D01*
X18785063Y-13501674D02*
X18794587Y-13492150D01*
X18794587Y-13492150D02*
X18813634Y-13463579D01*
X18813634Y-13463579D02*
X18823158Y-13444531D01*
X18823158Y-13444531D02*
X18832682Y-13415960D01*
X18832682Y-13415960D02*
X18842206Y-13368341D01*
X18842206Y-13368341D02*
X18842206Y-13330246D01*
X18842206Y-13330246D02*
X18832682Y-13282627D01*
X18832682Y-13282627D02*
X18823158Y-13254055D01*
X18823158Y-13254055D02*
X18813634Y-13235008D01*
X18813634Y-13235008D02*
X18794587Y-13206436D01*
X18794587Y-13206436D02*
X18785063Y-13196912D01*
X19146968Y-13501674D02*
X19137444Y-13492150D01*
X19137444Y-13492150D02*
X19118396Y-13463579D01*
X19118396Y-13463579D02*
X19108873Y-13444531D01*
X19108873Y-13444531D02*
X19099349Y-13415960D01*
X19099349Y-13415960D02*
X19089825Y-13368341D01*
X19089825Y-13368341D02*
X19089825Y-13330246D01*
X19089825Y-13330246D02*
X19099349Y-13282627D01*
X19099349Y-13282627D02*
X19108873Y-13254055D01*
X19108873Y-13254055D02*
X19118396Y-13235008D01*
X19118396Y-13235008D02*
X19137444Y-13206436D01*
X19137444Y-13206436D02*
X19146968Y-13196912D01*
X19223158Y-13292150D02*
X19223158Y-13425484D01*
X19223158Y-13311198D02*
X19232682Y-13301674D01*
X19232682Y-13301674D02*
X19251730Y-13292150D01*
X19251730Y-13292150D02*
X19280301Y-13292150D01*
X19280301Y-13292150D02*
X19299349Y-13301674D01*
X19299349Y-13301674D02*
X19308873Y-13320722D01*
X19308873Y-13320722D02*
X19308873Y-13425484D01*
X19432682Y-13425484D02*
X19413634Y-13415960D01*
X19413634Y-13415960D02*
X19404111Y-13406436D01*
X19404111Y-13406436D02*
X19394587Y-13387388D01*
X19394587Y-13387388D02*
X19394587Y-13330246D01*
X19394587Y-13330246D02*
X19404111Y-13311198D01*
X19404111Y-13311198D02*
X19413634Y-13301674D01*
X19413634Y-13301674D02*
X19432682Y-13292150D01*
X19432682Y-13292150D02*
X19461254Y-13292150D01*
X19461254Y-13292150D02*
X19480301Y-13301674D01*
X19480301Y-13301674D02*
X19489825Y-13311198D01*
X19489825Y-13311198D02*
X19499349Y-13330246D01*
X19499349Y-13330246D02*
X19499349Y-13387388D01*
X19499349Y-13387388D02*
X19489825Y-13406436D01*
X19489825Y-13406436D02*
X19480301Y-13415960D01*
X19480301Y-13415960D02*
X19461254Y-13425484D01*
X19461254Y-13425484D02*
X19432682Y-13425484D01*
X19556492Y-13292150D02*
X19632682Y-13292150D01*
X19585063Y-13225484D02*
X19585063Y-13396912D01*
X19585063Y-13396912D02*
X19594587Y-13415960D01*
X19594587Y-13415960D02*
X19613634Y-13425484D01*
X19613634Y-13425484D02*
X19632682Y-13425484D01*
X19851730Y-13292150D02*
X19851730Y-13492150D01*
X19851730Y-13301674D02*
X19870777Y-13292150D01*
X19870777Y-13292150D02*
X19908873Y-13292150D01*
X19908873Y-13292150D02*
X19927920Y-13301674D01*
X19927920Y-13301674D02*
X19937444Y-13311198D01*
X19937444Y-13311198D02*
X19946968Y-13330246D01*
X19946968Y-13330246D02*
X19946968Y-13387388D01*
X19946968Y-13387388D02*
X19937444Y-13406436D01*
X19937444Y-13406436D02*
X19927920Y-13415960D01*
X19927920Y-13415960D02*
X19908873Y-13425484D01*
X19908873Y-13425484D02*
X19870777Y-13425484D01*
X19870777Y-13425484D02*
X19851730Y-13415960D01*
X20061254Y-13425484D02*
X20042206Y-13415960D01*
X20042206Y-13415960D02*
X20032682Y-13396912D01*
X20032682Y-13396912D02*
X20032682Y-13225484D01*
X20223158Y-13425484D02*
X20223158Y-13320722D01*
X20223158Y-13320722D02*
X20213635Y-13301674D01*
X20213635Y-13301674D02*
X20194587Y-13292150D01*
X20194587Y-13292150D02*
X20156492Y-13292150D01*
X20156492Y-13292150D02*
X20137444Y-13301674D01*
X20223158Y-13415960D02*
X20204111Y-13425484D01*
X20204111Y-13425484D02*
X20156492Y-13425484D01*
X20156492Y-13425484D02*
X20137444Y-13415960D01*
X20137444Y-13415960D02*
X20127920Y-13396912D01*
X20127920Y-13396912D02*
X20127920Y-13377865D01*
X20127920Y-13377865D02*
X20137444Y-13358817D01*
X20137444Y-13358817D02*
X20156492Y-13349293D01*
X20156492Y-13349293D02*
X20204111Y-13349293D01*
X20204111Y-13349293D02*
X20223158Y-13339769D01*
X20289825Y-13292150D02*
X20366015Y-13292150D01*
X20318396Y-13225484D02*
X20318396Y-13396912D01*
X20318396Y-13396912D02*
X20327920Y-13415960D01*
X20327920Y-13415960D02*
X20346968Y-13425484D01*
X20346968Y-13425484D02*
X20366015Y-13425484D01*
X20508873Y-13415960D02*
X20489825Y-13425484D01*
X20489825Y-13425484D02*
X20451730Y-13425484D01*
X20451730Y-13425484D02*
X20432682Y-13415960D01*
X20432682Y-13415960D02*
X20423158Y-13396912D01*
X20423158Y-13396912D02*
X20423158Y-13320722D01*
X20423158Y-13320722D02*
X20432682Y-13301674D01*
X20432682Y-13301674D02*
X20451730Y-13292150D01*
X20451730Y-13292150D02*
X20489825Y-13292150D01*
X20489825Y-13292150D02*
X20508873Y-13301674D01*
X20508873Y-13301674D02*
X20518396Y-13320722D01*
X20518396Y-13320722D02*
X20518396Y-13339769D01*
X20518396Y-13339769D02*
X20423158Y-13358817D01*
X20689825Y-13425484D02*
X20689825Y-13225484D01*
X20689825Y-13415960D02*
X20670777Y-13425484D01*
X20670777Y-13425484D02*
X20632682Y-13425484D01*
X20632682Y-13425484D02*
X20613635Y-13415960D01*
X20613635Y-13415960D02*
X20604111Y-13406436D01*
X20604111Y-13406436D02*
X20594587Y-13387388D01*
X20594587Y-13387388D02*
X20594587Y-13330246D01*
X20594587Y-13330246D02*
X20604111Y-13311198D01*
X20604111Y-13311198D02*
X20613635Y-13301674D01*
X20613635Y-13301674D02*
X20632682Y-13292150D01*
X20632682Y-13292150D02*
X20670777Y-13292150D01*
X20670777Y-13292150D02*
X20689825Y-13301674D01*
X20766016Y-13501674D02*
X20775539Y-13492150D01*
X20775539Y-13492150D02*
X20794587Y-13463579D01*
X20794587Y-13463579D02*
X20804111Y-13444531D01*
X20804111Y-13444531D02*
X20813635Y-13415960D01*
X20813635Y-13415960D02*
X20823158Y-13368341D01*
X20823158Y-13368341D02*
X20823158Y-13330246D01*
X20823158Y-13330246D02*
X20813635Y-13282627D01*
X20813635Y-13282627D02*
X20804111Y-13254055D01*
X20804111Y-13254055D02*
X20794587Y-13235008D01*
X20794587Y-13235008D02*
X20775539Y-13206436D01*
X20775539Y-13206436D02*
X20766016Y-13196912D01*
M02*
