%TF.GenerationSoftware,KiCad,Pcbnew,8.0.7*%
%TF.CreationDate,2024-12-28T17:49:01+01:00*%
%TF.ProjectId,usb-c-power-meter,7573622d-632d-4706-9f77-65722d6d6574,rev?*%
%TF.SameCoordinates,Original*%
%TF.FileFunction,Legend,Top*%
%TF.FilePolarity,Positive*%
%FSLAX46Y46*%
G04 Gerber Fmt 4.6, Leading zero omitted, Abs format (unit mm)*
G04 Created by KiCad (PCBNEW 8.0.7) date 2024-12-28 17:49:01*
%MOMM*%
%LPD*%
G01*
G04 APERTURE LIST*
%ADD10C,0.150000*%
%ADD11C,0.100000*%
%ADD12C,0.120000*%
G04 APERTURE END LIST*
D10*
X159308333Y-122111980D02*
X159260714Y-122159600D01*
X159260714Y-122159600D02*
X159117857Y-122207219D01*
X159117857Y-122207219D02*
X159022619Y-122207219D01*
X159022619Y-122207219D02*
X158879762Y-122159600D01*
X158879762Y-122159600D02*
X158784524Y-122064361D01*
X158784524Y-122064361D02*
X158736905Y-121969123D01*
X158736905Y-121969123D02*
X158689286Y-121778647D01*
X158689286Y-121778647D02*
X158689286Y-121635790D01*
X158689286Y-121635790D02*
X158736905Y-121445314D01*
X158736905Y-121445314D02*
X158784524Y-121350076D01*
X158784524Y-121350076D02*
X158879762Y-121254838D01*
X158879762Y-121254838D02*
X159022619Y-121207219D01*
X159022619Y-121207219D02*
X159117857Y-121207219D01*
X159117857Y-121207219D02*
X159260714Y-121254838D01*
X159260714Y-121254838D02*
X159308333Y-121302457D01*
X160165476Y-121207219D02*
X159975000Y-121207219D01*
X159975000Y-121207219D02*
X159879762Y-121254838D01*
X159879762Y-121254838D02*
X159832143Y-121302457D01*
X159832143Y-121302457D02*
X159736905Y-121445314D01*
X159736905Y-121445314D02*
X159689286Y-121635790D01*
X159689286Y-121635790D02*
X159689286Y-122016742D01*
X159689286Y-122016742D02*
X159736905Y-122111980D01*
X159736905Y-122111980D02*
X159784524Y-122159600D01*
X159784524Y-122159600D02*
X159879762Y-122207219D01*
X159879762Y-122207219D02*
X160070238Y-122207219D01*
X160070238Y-122207219D02*
X160165476Y-122159600D01*
X160165476Y-122159600D02*
X160213095Y-122111980D01*
X160213095Y-122111980D02*
X160260714Y-122016742D01*
X160260714Y-122016742D02*
X160260714Y-121778647D01*
X160260714Y-121778647D02*
X160213095Y-121683409D01*
X160213095Y-121683409D02*
X160165476Y-121635790D01*
X160165476Y-121635790D02*
X160070238Y-121588171D01*
X160070238Y-121588171D02*
X159879762Y-121588171D01*
X159879762Y-121588171D02*
X159784524Y-121635790D01*
X159784524Y-121635790D02*
X159736905Y-121683409D01*
X159736905Y-121683409D02*
X159689286Y-121778647D01*
X153408095Y-117244819D02*
X153408095Y-118054342D01*
X153408095Y-118054342D02*
X153455714Y-118149580D01*
X153455714Y-118149580D02*
X153503333Y-118197200D01*
X153503333Y-118197200D02*
X153598571Y-118244819D01*
X153598571Y-118244819D02*
X153789047Y-118244819D01*
X153789047Y-118244819D02*
X153884285Y-118197200D01*
X153884285Y-118197200D02*
X153931904Y-118149580D01*
X153931904Y-118149580D02*
X153979523Y-118054342D01*
X153979523Y-118054342D02*
X153979523Y-117244819D01*
X154884285Y-117578152D02*
X154884285Y-118244819D01*
X154646190Y-117197200D02*
X154408095Y-117911485D01*
X154408095Y-117911485D02*
X155027142Y-117911485D01*
X156238095Y-111254819D02*
X156238095Y-112064342D01*
X156238095Y-112064342D02*
X156285714Y-112159580D01*
X156285714Y-112159580D02*
X156333333Y-112207200D01*
X156333333Y-112207200D02*
X156428571Y-112254819D01*
X156428571Y-112254819D02*
X156619047Y-112254819D01*
X156619047Y-112254819D02*
X156714285Y-112207200D01*
X156714285Y-112207200D02*
X156761904Y-112159580D01*
X156761904Y-112159580D02*
X156809523Y-112064342D01*
X156809523Y-112064342D02*
X156809523Y-111254819D01*
X157238095Y-111350057D02*
X157285714Y-111302438D01*
X157285714Y-111302438D02*
X157380952Y-111254819D01*
X157380952Y-111254819D02*
X157619047Y-111254819D01*
X157619047Y-111254819D02*
X157714285Y-111302438D01*
X157714285Y-111302438D02*
X157761904Y-111350057D01*
X157761904Y-111350057D02*
X157809523Y-111445295D01*
X157809523Y-111445295D02*
X157809523Y-111540533D01*
X157809523Y-111540533D02*
X157761904Y-111683390D01*
X157761904Y-111683390D02*
X157190476Y-112254819D01*
X157190476Y-112254819D02*
X157809523Y-112254819D01*
X157813333Y-102020580D02*
X157765714Y-102068200D01*
X157765714Y-102068200D02*
X157622857Y-102115819D01*
X157622857Y-102115819D02*
X157527619Y-102115819D01*
X157527619Y-102115819D02*
X157384762Y-102068200D01*
X157384762Y-102068200D02*
X157289524Y-101972961D01*
X157289524Y-101972961D02*
X157241905Y-101877723D01*
X157241905Y-101877723D02*
X157194286Y-101687247D01*
X157194286Y-101687247D02*
X157194286Y-101544390D01*
X157194286Y-101544390D02*
X157241905Y-101353914D01*
X157241905Y-101353914D02*
X157289524Y-101258676D01*
X157289524Y-101258676D02*
X157384762Y-101163438D01*
X157384762Y-101163438D02*
X157527619Y-101115819D01*
X157527619Y-101115819D02*
X157622857Y-101115819D01*
X157622857Y-101115819D02*
X157765714Y-101163438D01*
X157765714Y-101163438D02*
X157813333Y-101211057D01*
X158765714Y-102115819D02*
X158194286Y-102115819D01*
X158480000Y-102115819D02*
X158480000Y-101115819D01*
X158480000Y-101115819D02*
X158384762Y-101258676D01*
X158384762Y-101258676D02*
X158289524Y-101353914D01*
X158289524Y-101353914D02*
X158194286Y-101401533D01*
X165827333Y-110427980D02*
X165779714Y-110475600D01*
X165779714Y-110475600D02*
X165636857Y-110523219D01*
X165636857Y-110523219D02*
X165541619Y-110523219D01*
X165541619Y-110523219D02*
X165398762Y-110475600D01*
X165398762Y-110475600D02*
X165303524Y-110380361D01*
X165303524Y-110380361D02*
X165255905Y-110285123D01*
X165255905Y-110285123D02*
X165208286Y-110094647D01*
X165208286Y-110094647D02*
X165208286Y-109951790D01*
X165208286Y-109951790D02*
X165255905Y-109761314D01*
X165255905Y-109761314D02*
X165303524Y-109666076D01*
X165303524Y-109666076D02*
X165398762Y-109570838D01*
X165398762Y-109570838D02*
X165541619Y-109523219D01*
X165541619Y-109523219D02*
X165636857Y-109523219D01*
X165636857Y-109523219D02*
X165779714Y-109570838D01*
X165779714Y-109570838D02*
X165827333Y-109618457D01*
X166684476Y-109856552D02*
X166684476Y-110523219D01*
X166446381Y-109475600D02*
X166208286Y-110189885D01*
X166208286Y-110189885D02*
X166827333Y-110189885D01*
X147514819Y-98533333D02*
X148229104Y-98533333D01*
X148229104Y-98533333D02*
X148371961Y-98580952D01*
X148371961Y-98580952D02*
X148467200Y-98676190D01*
X148467200Y-98676190D02*
X148514819Y-98819047D01*
X148514819Y-98819047D02*
X148514819Y-98914285D01*
X147514819Y-98152380D02*
X147514819Y-97533333D01*
X147514819Y-97533333D02*
X147895771Y-97866666D01*
X147895771Y-97866666D02*
X147895771Y-97723809D01*
X147895771Y-97723809D02*
X147943390Y-97628571D01*
X147943390Y-97628571D02*
X147991009Y-97580952D01*
X147991009Y-97580952D02*
X148086247Y-97533333D01*
X148086247Y-97533333D02*
X148324342Y-97533333D01*
X148324342Y-97533333D02*
X148419580Y-97580952D01*
X148419580Y-97580952D02*
X148467200Y-97628571D01*
X148467200Y-97628571D02*
X148514819Y-97723809D01*
X148514819Y-97723809D02*
X148514819Y-98009523D01*
X148514819Y-98009523D02*
X148467200Y-98104761D01*
X148467200Y-98104761D02*
X148419580Y-98152380D01*
X160424333Y-111842819D02*
X160091000Y-111366628D01*
X159852905Y-111842819D02*
X159852905Y-110842819D01*
X159852905Y-110842819D02*
X160233857Y-110842819D01*
X160233857Y-110842819D02*
X160329095Y-110890438D01*
X160329095Y-110890438D02*
X160376714Y-110938057D01*
X160376714Y-110938057D02*
X160424333Y-111033295D01*
X160424333Y-111033295D02*
X160424333Y-111176152D01*
X160424333Y-111176152D02*
X160376714Y-111271390D01*
X160376714Y-111271390D02*
X160329095Y-111319009D01*
X160329095Y-111319009D02*
X160233857Y-111366628D01*
X160233857Y-111366628D02*
X159852905Y-111366628D01*
X160995762Y-111271390D02*
X160900524Y-111223771D01*
X160900524Y-111223771D02*
X160852905Y-111176152D01*
X160852905Y-111176152D02*
X160805286Y-111080914D01*
X160805286Y-111080914D02*
X160805286Y-111033295D01*
X160805286Y-111033295D02*
X160852905Y-110938057D01*
X160852905Y-110938057D02*
X160900524Y-110890438D01*
X160900524Y-110890438D02*
X160995762Y-110842819D01*
X160995762Y-110842819D02*
X161186238Y-110842819D01*
X161186238Y-110842819D02*
X161281476Y-110890438D01*
X161281476Y-110890438D02*
X161329095Y-110938057D01*
X161329095Y-110938057D02*
X161376714Y-111033295D01*
X161376714Y-111033295D02*
X161376714Y-111080914D01*
X161376714Y-111080914D02*
X161329095Y-111176152D01*
X161329095Y-111176152D02*
X161281476Y-111223771D01*
X161281476Y-111223771D02*
X161186238Y-111271390D01*
X161186238Y-111271390D02*
X160995762Y-111271390D01*
X160995762Y-111271390D02*
X160900524Y-111319009D01*
X160900524Y-111319009D02*
X160852905Y-111366628D01*
X160852905Y-111366628D02*
X160805286Y-111461866D01*
X160805286Y-111461866D02*
X160805286Y-111652342D01*
X160805286Y-111652342D02*
X160852905Y-111747580D01*
X160852905Y-111747580D02*
X160900524Y-111795200D01*
X160900524Y-111795200D02*
X160995762Y-111842819D01*
X160995762Y-111842819D02*
X161186238Y-111842819D01*
X161186238Y-111842819D02*
X161281476Y-111795200D01*
X161281476Y-111795200D02*
X161329095Y-111747580D01*
X161329095Y-111747580D02*
X161376714Y-111652342D01*
X161376714Y-111652342D02*
X161376714Y-111461866D01*
X161376714Y-111461866D02*
X161329095Y-111366628D01*
X161329095Y-111366628D02*
X161281476Y-111319009D01*
X161281476Y-111319009D02*
X161186238Y-111271390D01*
X149431333Y-101226819D02*
X149098000Y-100750628D01*
X148859905Y-101226819D02*
X148859905Y-100226819D01*
X148859905Y-100226819D02*
X149240857Y-100226819D01*
X149240857Y-100226819D02*
X149336095Y-100274438D01*
X149336095Y-100274438D02*
X149383714Y-100322057D01*
X149383714Y-100322057D02*
X149431333Y-100417295D01*
X149431333Y-100417295D02*
X149431333Y-100560152D01*
X149431333Y-100560152D02*
X149383714Y-100655390D01*
X149383714Y-100655390D02*
X149336095Y-100703009D01*
X149336095Y-100703009D02*
X149240857Y-100750628D01*
X149240857Y-100750628D02*
X148859905Y-100750628D01*
X149764667Y-100226819D02*
X150431333Y-100226819D01*
X150431333Y-100226819D02*
X150002762Y-101226819D01*
X159298733Y-119827219D02*
X158965400Y-119351028D01*
X158727305Y-119827219D02*
X158727305Y-118827219D01*
X158727305Y-118827219D02*
X159108257Y-118827219D01*
X159108257Y-118827219D02*
X159203495Y-118874838D01*
X159203495Y-118874838D02*
X159251114Y-118922457D01*
X159251114Y-118922457D02*
X159298733Y-119017695D01*
X159298733Y-119017695D02*
X159298733Y-119160552D01*
X159298733Y-119160552D02*
X159251114Y-119255790D01*
X159251114Y-119255790D02*
X159203495Y-119303409D01*
X159203495Y-119303409D02*
X159108257Y-119351028D01*
X159108257Y-119351028D02*
X158727305Y-119351028D01*
X159774924Y-119827219D02*
X159965400Y-119827219D01*
X159965400Y-119827219D02*
X160060638Y-119779600D01*
X160060638Y-119779600D02*
X160108257Y-119731980D01*
X160108257Y-119731980D02*
X160203495Y-119589123D01*
X160203495Y-119589123D02*
X160251114Y-119398647D01*
X160251114Y-119398647D02*
X160251114Y-119017695D01*
X160251114Y-119017695D02*
X160203495Y-118922457D01*
X160203495Y-118922457D02*
X160155876Y-118874838D01*
X160155876Y-118874838D02*
X160060638Y-118827219D01*
X160060638Y-118827219D02*
X159870162Y-118827219D01*
X159870162Y-118827219D02*
X159774924Y-118874838D01*
X159774924Y-118874838D02*
X159727305Y-118922457D01*
X159727305Y-118922457D02*
X159679686Y-119017695D01*
X159679686Y-119017695D02*
X159679686Y-119255790D01*
X159679686Y-119255790D02*
X159727305Y-119351028D01*
X159727305Y-119351028D02*
X159774924Y-119398647D01*
X159774924Y-119398647D02*
X159870162Y-119446266D01*
X159870162Y-119446266D02*
X160060638Y-119446266D01*
X160060638Y-119446266D02*
X160155876Y-119398647D01*
X160155876Y-119398647D02*
X160203495Y-119351028D01*
X160203495Y-119351028D02*
X160251114Y-119255790D01*
D11*
X154961904Y-107142580D02*
X154961904Y-106333057D01*
X154961904Y-106333057D02*
X154914285Y-106237819D01*
X154914285Y-106237819D02*
X154866666Y-106190200D01*
X154866666Y-106190200D02*
X154771428Y-106142580D01*
X154771428Y-106142580D02*
X154580952Y-106142580D01*
X154580952Y-106142580D02*
X154485714Y-106190200D01*
X154485714Y-106190200D02*
X154438095Y-106237819D01*
X154438095Y-106237819D02*
X154390476Y-106333057D01*
X154390476Y-106333057D02*
X154390476Y-107142580D01*
X154009523Y-107142580D02*
X153390476Y-107142580D01*
X153390476Y-107142580D02*
X153723809Y-106761628D01*
X153723809Y-106761628D02*
X153580952Y-106761628D01*
X153580952Y-106761628D02*
X153485714Y-106714009D01*
X153485714Y-106714009D02*
X153438095Y-106666390D01*
X153438095Y-106666390D02*
X153390476Y-106571152D01*
X153390476Y-106571152D02*
X153390476Y-106333057D01*
X153390476Y-106333057D02*
X153438095Y-106237819D01*
X153438095Y-106237819D02*
X153485714Y-106190200D01*
X153485714Y-106190200D02*
X153580952Y-106142580D01*
X153580952Y-106142580D02*
X153866666Y-106142580D01*
X153866666Y-106142580D02*
X153961904Y-106190200D01*
X153961904Y-106190200D02*
X154009523Y-106237819D01*
D10*
X159489733Y-116930380D02*
X159442114Y-116978000D01*
X159442114Y-116978000D02*
X159299257Y-117025619D01*
X159299257Y-117025619D02*
X159204019Y-117025619D01*
X159204019Y-117025619D02*
X159061162Y-116978000D01*
X159061162Y-116978000D02*
X158965924Y-116882761D01*
X158965924Y-116882761D02*
X158918305Y-116787523D01*
X158918305Y-116787523D02*
X158870686Y-116597047D01*
X158870686Y-116597047D02*
X158870686Y-116454190D01*
X158870686Y-116454190D02*
X158918305Y-116263714D01*
X158918305Y-116263714D02*
X158965924Y-116168476D01*
X158965924Y-116168476D02*
X159061162Y-116073238D01*
X159061162Y-116073238D02*
X159204019Y-116025619D01*
X159204019Y-116025619D02*
X159299257Y-116025619D01*
X159299257Y-116025619D02*
X159442114Y-116073238D01*
X159442114Y-116073238D02*
X159489733Y-116120857D01*
X160394495Y-116025619D02*
X159918305Y-116025619D01*
X159918305Y-116025619D02*
X159870686Y-116501809D01*
X159870686Y-116501809D02*
X159918305Y-116454190D01*
X159918305Y-116454190D02*
X160013543Y-116406571D01*
X160013543Y-116406571D02*
X160251638Y-116406571D01*
X160251638Y-116406571D02*
X160346876Y-116454190D01*
X160346876Y-116454190D02*
X160394495Y-116501809D01*
X160394495Y-116501809D02*
X160442114Y-116597047D01*
X160442114Y-116597047D02*
X160442114Y-116835142D01*
X160442114Y-116835142D02*
X160394495Y-116930380D01*
X160394495Y-116930380D02*
X160346876Y-116978000D01*
X160346876Y-116978000D02*
X160251638Y-117025619D01*
X160251638Y-117025619D02*
X160013543Y-117025619D01*
X160013543Y-117025619D02*
X159918305Y-116978000D01*
X159918305Y-116978000D02*
X159870686Y-116930380D01*
X152395980Y-114986666D02*
X152443600Y-115034285D01*
X152443600Y-115034285D02*
X152491219Y-115177142D01*
X152491219Y-115177142D02*
X152491219Y-115272380D01*
X152491219Y-115272380D02*
X152443600Y-115415237D01*
X152443600Y-115415237D02*
X152348361Y-115510475D01*
X152348361Y-115510475D02*
X152253123Y-115558094D01*
X152253123Y-115558094D02*
X152062647Y-115605713D01*
X152062647Y-115605713D02*
X151919790Y-115605713D01*
X151919790Y-115605713D02*
X151729314Y-115558094D01*
X151729314Y-115558094D02*
X151634076Y-115510475D01*
X151634076Y-115510475D02*
X151538838Y-115415237D01*
X151538838Y-115415237D02*
X151491219Y-115272380D01*
X151491219Y-115272380D02*
X151491219Y-115177142D01*
X151491219Y-115177142D02*
X151538838Y-115034285D01*
X151538838Y-115034285D02*
X151586457Y-114986666D01*
X151491219Y-114653332D02*
X151491219Y-114034285D01*
X151491219Y-114034285D02*
X151872171Y-114367618D01*
X151872171Y-114367618D02*
X151872171Y-114224761D01*
X151872171Y-114224761D02*
X151919790Y-114129523D01*
X151919790Y-114129523D02*
X151967409Y-114081904D01*
X151967409Y-114081904D02*
X152062647Y-114034285D01*
X152062647Y-114034285D02*
X152300742Y-114034285D01*
X152300742Y-114034285D02*
X152395980Y-114081904D01*
X152395980Y-114081904D02*
X152443600Y-114129523D01*
X152443600Y-114129523D02*
X152491219Y-114224761D01*
X152491219Y-114224761D02*
X152491219Y-114510475D01*
X152491219Y-114510475D02*
X152443600Y-114605713D01*
X152443600Y-114605713D02*
X152395980Y-114653332D01*
X156035333Y-100972819D02*
X155702000Y-100496628D01*
X155463905Y-100972819D02*
X155463905Y-99972819D01*
X155463905Y-99972819D02*
X155844857Y-99972819D01*
X155844857Y-99972819D02*
X155940095Y-100020438D01*
X155940095Y-100020438D02*
X155987714Y-100068057D01*
X155987714Y-100068057D02*
X156035333Y-100163295D01*
X156035333Y-100163295D02*
X156035333Y-100306152D01*
X156035333Y-100306152D02*
X155987714Y-100401390D01*
X155987714Y-100401390D02*
X155940095Y-100449009D01*
X155940095Y-100449009D02*
X155844857Y-100496628D01*
X155844857Y-100496628D02*
X155463905Y-100496628D01*
X156940095Y-99972819D02*
X156463905Y-99972819D01*
X156463905Y-99972819D02*
X156416286Y-100449009D01*
X156416286Y-100449009D02*
X156463905Y-100401390D01*
X156463905Y-100401390D02*
X156559143Y-100353771D01*
X156559143Y-100353771D02*
X156797238Y-100353771D01*
X156797238Y-100353771D02*
X156892476Y-100401390D01*
X156892476Y-100401390D02*
X156940095Y-100449009D01*
X156940095Y-100449009D02*
X156987714Y-100544247D01*
X156987714Y-100544247D02*
X156987714Y-100782342D01*
X156987714Y-100782342D02*
X156940095Y-100877580D01*
X156940095Y-100877580D02*
X156892476Y-100925200D01*
X156892476Y-100925200D02*
X156797238Y-100972819D01*
X156797238Y-100972819D02*
X156559143Y-100972819D01*
X156559143Y-100972819D02*
X156463905Y-100925200D01*
X156463905Y-100925200D02*
X156416286Y-100877580D01*
X161895819Y-109004094D02*
X160895819Y-109004094D01*
X160895819Y-109004094D02*
X160895819Y-108765999D01*
X160895819Y-108765999D02*
X160943438Y-108623142D01*
X160943438Y-108623142D02*
X161038676Y-108527904D01*
X161038676Y-108527904D02*
X161133914Y-108480285D01*
X161133914Y-108480285D02*
X161324390Y-108432666D01*
X161324390Y-108432666D02*
X161467247Y-108432666D01*
X161467247Y-108432666D02*
X161657723Y-108480285D01*
X161657723Y-108480285D02*
X161752961Y-108527904D01*
X161752961Y-108527904D02*
X161848200Y-108623142D01*
X161848200Y-108623142D02*
X161895819Y-108765999D01*
X161895819Y-108765999D02*
X161895819Y-109004094D01*
X160895819Y-108099332D02*
X160895819Y-107480285D01*
X160895819Y-107480285D02*
X161276771Y-107813618D01*
X161276771Y-107813618D02*
X161276771Y-107670761D01*
X161276771Y-107670761D02*
X161324390Y-107575523D01*
X161324390Y-107575523D02*
X161372009Y-107527904D01*
X161372009Y-107527904D02*
X161467247Y-107480285D01*
X161467247Y-107480285D02*
X161705342Y-107480285D01*
X161705342Y-107480285D02*
X161800580Y-107527904D01*
X161800580Y-107527904D02*
X161848200Y-107575523D01*
X161848200Y-107575523D02*
X161895819Y-107670761D01*
X161895819Y-107670761D02*
X161895819Y-107956475D01*
X161895819Y-107956475D02*
X161848200Y-108051713D01*
X161848200Y-108051713D02*
X161800580Y-108099332D01*
X149460180Y-107066666D02*
X148745895Y-107066666D01*
X148745895Y-107066666D02*
X148603038Y-107019047D01*
X148603038Y-107019047D02*
X148507800Y-106923809D01*
X148507800Y-106923809D02*
X148460180Y-106780952D01*
X148460180Y-106780952D02*
X148460180Y-106685714D01*
X148460180Y-108066666D02*
X148460180Y-107495238D01*
X148460180Y-107780952D02*
X149460180Y-107780952D01*
X149460180Y-107780952D02*
X149317323Y-107685714D01*
X149317323Y-107685714D02*
X149222085Y-107590476D01*
X149222085Y-107590476D02*
X149174466Y-107495238D01*
X152719819Y-111543094D02*
X151719819Y-111543094D01*
X151719819Y-111543094D02*
X151719819Y-111304999D01*
X151719819Y-111304999D02*
X151767438Y-111162142D01*
X151767438Y-111162142D02*
X151862676Y-111066904D01*
X151862676Y-111066904D02*
X151957914Y-111019285D01*
X151957914Y-111019285D02*
X152148390Y-110971666D01*
X152148390Y-110971666D02*
X152291247Y-110971666D01*
X152291247Y-110971666D02*
X152481723Y-111019285D01*
X152481723Y-111019285D02*
X152576961Y-111066904D01*
X152576961Y-111066904D02*
X152672200Y-111162142D01*
X152672200Y-111162142D02*
X152719819Y-111304999D01*
X152719819Y-111304999D02*
X152719819Y-111543094D01*
X151815057Y-110590713D02*
X151767438Y-110543094D01*
X151767438Y-110543094D02*
X151719819Y-110447856D01*
X151719819Y-110447856D02*
X151719819Y-110209761D01*
X151719819Y-110209761D02*
X151767438Y-110114523D01*
X151767438Y-110114523D02*
X151815057Y-110066904D01*
X151815057Y-110066904D02*
X151910295Y-110019285D01*
X151910295Y-110019285D02*
X152005533Y-110019285D01*
X152005533Y-110019285D02*
X152148390Y-110066904D01*
X152148390Y-110066904D02*
X152719819Y-110638332D01*
X152719819Y-110638332D02*
X152719819Y-110019285D01*
X161997180Y-121715866D02*
X162044800Y-121763485D01*
X162044800Y-121763485D02*
X162092419Y-121906342D01*
X162092419Y-121906342D02*
X162092419Y-122001580D01*
X162092419Y-122001580D02*
X162044800Y-122144437D01*
X162044800Y-122144437D02*
X161949561Y-122239675D01*
X161949561Y-122239675D02*
X161854323Y-122287294D01*
X161854323Y-122287294D02*
X161663847Y-122334913D01*
X161663847Y-122334913D02*
X161520990Y-122334913D01*
X161520990Y-122334913D02*
X161330514Y-122287294D01*
X161330514Y-122287294D02*
X161235276Y-122239675D01*
X161235276Y-122239675D02*
X161140038Y-122144437D01*
X161140038Y-122144437D02*
X161092419Y-122001580D01*
X161092419Y-122001580D02*
X161092419Y-121906342D01*
X161092419Y-121906342D02*
X161140038Y-121763485D01*
X161140038Y-121763485D02*
X161187657Y-121715866D01*
X161187657Y-121334913D02*
X161140038Y-121287294D01*
X161140038Y-121287294D02*
X161092419Y-121192056D01*
X161092419Y-121192056D02*
X161092419Y-120953961D01*
X161092419Y-120953961D02*
X161140038Y-120858723D01*
X161140038Y-120858723D02*
X161187657Y-120811104D01*
X161187657Y-120811104D02*
X161282895Y-120763485D01*
X161282895Y-120763485D02*
X161378133Y-120763485D01*
X161378133Y-120763485D02*
X161520990Y-120811104D01*
X161520990Y-120811104D02*
X162092419Y-121382532D01*
X162092419Y-121382532D02*
X162092419Y-120763485D01*
X151717333Y-104274819D02*
X151384000Y-103798628D01*
X151145905Y-104274819D02*
X151145905Y-103274819D01*
X151145905Y-103274819D02*
X151526857Y-103274819D01*
X151526857Y-103274819D02*
X151622095Y-103322438D01*
X151622095Y-103322438D02*
X151669714Y-103370057D01*
X151669714Y-103370057D02*
X151717333Y-103465295D01*
X151717333Y-103465295D02*
X151717333Y-103608152D01*
X151717333Y-103608152D02*
X151669714Y-103703390D01*
X151669714Y-103703390D02*
X151622095Y-103751009D01*
X151622095Y-103751009D02*
X151526857Y-103798628D01*
X151526857Y-103798628D02*
X151145905Y-103798628D01*
X152574476Y-103274819D02*
X152384000Y-103274819D01*
X152384000Y-103274819D02*
X152288762Y-103322438D01*
X152288762Y-103322438D02*
X152241143Y-103370057D01*
X152241143Y-103370057D02*
X152145905Y-103512914D01*
X152145905Y-103512914D02*
X152098286Y-103703390D01*
X152098286Y-103703390D02*
X152098286Y-104084342D01*
X152098286Y-104084342D02*
X152145905Y-104179580D01*
X152145905Y-104179580D02*
X152193524Y-104227200D01*
X152193524Y-104227200D02*
X152288762Y-104274819D01*
X152288762Y-104274819D02*
X152479238Y-104274819D01*
X152479238Y-104274819D02*
X152574476Y-104227200D01*
X152574476Y-104227200D02*
X152622095Y-104179580D01*
X152622095Y-104179580D02*
X152669714Y-104084342D01*
X152669714Y-104084342D02*
X152669714Y-103846247D01*
X152669714Y-103846247D02*
X152622095Y-103751009D01*
X152622095Y-103751009D02*
X152574476Y-103703390D01*
X152574476Y-103703390D02*
X152479238Y-103655771D01*
X152479238Y-103655771D02*
X152288762Y-103655771D01*
X152288762Y-103655771D02*
X152193524Y-103703390D01*
X152193524Y-103703390D02*
X152145905Y-103751009D01*
X152145905Y-103751009D02*
X152098286Y-103846247D01*
X160772319Y-116961904D02*
X161581842Y-116961904D01*
X161581842Y-116961904D02*
X161677080Y-116914285D01*
X161677080Y-116914285D02*
X161724700Y-116866666D01*
X161724700Y-116866666D02*
X161772319Y-116771428D01*
X161772319Y-116771428D02*
X161772319Y-116580952D01*
X161772319Y-116580952D02*
X161724700Y-116485714D01*
X161724700Y-116485714D02*
X161677080Y-116438095D01*
X161677080Y-116438095D02*
X161581842Y-116390476D01*
X161581842Y-116390476D02*
X160772319Y-116390476D01*
X161772319Y-115390476D02*
X161772319Y-115961904D01*
X161772319Y-115676190D02*
X160772319Y-115676190D01*
X160772319Y-115676190D02*
X160915176Y-115771428D01*
X160915176Y-115771428D02*
X161010414Y-115866666D01*
X161010414Y-115866666D02*
X161058033Y-115961904D01*
D12*
%TO.C,C6*%
X159615580Y-122590000D02*
X159334420Y-122590000D01*
X159615580Y-123610000D02*
X159334420Y-123610000D01*
%TO.C,U4*%
X154200000Y-118640000D02*
X152250000Y-118640000D01*
X154200000Y-118640000D02*
X156150000Y-118640000D01*
X154200000Y-123760000D02*
X152250000Y-123760000D01*
X154200000Y-123760000D02*
X156150000Y-123760000D01*
X157140000Y-123995000D02*
X156660000Y-123995000D01*
X156900000Y-123665000D01*
X157140000Y-123995000D01*
G36*
X157140000Y-123995000D02*
G01*
X156660000Y-123995000D01*
X156900000Y-123665000D01*
X157140000Y-123995000D01*
G37*
%TO.C,U2*%
X157000000Y-112640000D02*
X156200000Y-112640000D01*
X157000000Y-112640000D02*
X157800000Y-112640000D01*
X157000000Y-115760000D02*
X156200000Y-115760000D01*
X157000000Y-115760000D02*
X157800000Y-115760000D01*
X155700000Y-112690000D02*
X155460000Y-112360000D01*
X155940000Y-112360000D01*
X155700000Y-112690000D01*
G36*
X155700000Y-112690000D02*
G01*
X155460000Y-112360000D01*
X155940000Y-112360000D01*
X155700000Y-112690000D01*
G37*
%TO.C,C1*%
X155690000Y-102665580D02*
X155690000Y-102384420D01*
X156710000Y-102665580D02*
X156710000Y-102384420D01*
%TO.C,C4*%
X166134580Y-110930000D02*
X165853420Y-110930000D01*
X166134580Y-111950000D02*
X165853420Y-111950000D01*
%TO.C,J3*%
X149060000Y-99530000D02*
X149060000Y-98200000D01*
X150390000Y-99530000D02*
X149060000Y-99530000D01*
X151660000Y-96870000D02*
X159340000Y-96870000D01*
X151660000Y-99530000D02*
X151660000Y-96870000D01*
X151660000Y-99530000D02*
X159340000Y-99530000D01*
X159340000Y-99530000D02*
X159340000Y-96870000D01*
%TO.C,R8*%
X163233258Y-110917500D02*
X162758742Y-110917500D01*
X163233258Y-111962500D02*
X162758742Y-111962500D01*
%TO.C,R7*%
X150977500Y-101762258D02*
X150977500Y-101287742D01*
X152022500Y-101762258D02*
X152022500Y-101287742D01*
%TO.C,R9*%
X159702658Y-117419900D02*
X159228142Y-117419900D01*
X159702658Y-118464900D02*
X159228142Y-118464900D01*
%TO.C,C5*%
X159327800Y-113957548D02*
X159327800Y-114480052D01*
X160797800Y-113957548D02*
X160797800Y-114480052D01*
%TO.C,C3*%
X152879000Y-114108748D02*
X152879000Y-115531252D01*
X154699000Y-114108748D02*
X154699000Y-115531252D01*
%TO.C,R5*%
X153977500Y-101762258D02*
X153977500Y-101287742D01*
X155022500Y-101762258D02*
X155022500Y-101287742D01*
%TO.C,D3*%
X162441000Y-110626000D02*
X162441000Y-106616000D01*
X162441000Y-110626000D02*
X164441000Y-110626000D01*
X164441000Y-110626000D02*
X164441000Y-106616000D01*
%TO.C,J1*%
X144335000Y-102820000D02*
X145745000Y-102820000D01*
X144335000Y-111980000D02*
X145745000Y-111980000D01*
X148415000Y-103640000D02*
X148265000Y-103640000D01*
X148415000Y-104440000D02*
X148415000Y-103640000D01*
%TO.C,D2*%
X153090000Y-110120000D02*
X153090000Y-111530000D01*
X153750000Y-111530000D02*
X153090000Y-111530000D01*
X155410000Y-110120000D02*
X155410000Y-111530000D01*
X155410000Y-111530000D02*
X154750000Y-111530000D01*
X155720000Y-109990000D02*
X155390000Y-109750000D01*
X155720000Y-109510000D01*
X155720000Y-109990000D01*
G36*
X155720000Y-109990000D02*
G01*
X155390000Y-109750000D01*
X155720000Y-109510000D01*
X155720000Y-109990000D01*
G37*
%TO.C,C2*%
X162490000Y-121315580D02*
X162490000Y-121034420D01*
X163510000Y-121315580D02*
X163510000Y-121034420D01*
%TO.C,R6*%
X152477500Y-101762258D02*
X152477500Y-101287742D01*
X153522500Y-101762258D02*
X153522500Y-101287742D01*
D10*
%TO.C,U1*%
X162117500Y-118200000D02*
X162117500Y-114200000D01*
X167517500Y-118200000D02*
X167517500Y-114200000D01*
D12*
X162117500Y-118550000D02*
X161787500Y-118790000D01*
X161787500Y-118310000D01*
X162117500Y-118550000D01*
G36*
X162117500Y-118550000D02*
G01*
X161787500Y-118790000D01*
X161787500Y-118310000D01*
X162117500Y-118550000D01*
G37*
%TD*%
M02*
