%TF.GenerationSoftware,KiCad,Pcbnew,8.0.7*%
%TF.CreationDate,2024-12-28T17:49:15+01:00*%
%TF.ProjectId,usb-c-power-meter,7573622d-632d-4706-9f77-65722d6d6574,rev?*%
%TF.SameCoordinates,Original*%
%TF.FileFunction,Drillmap*%
%TF.FilePolarity,Positive*%
%FSLAX45Y45*%
G04 Gerber Fmt 4.5, Leading zero omitted, Abs format (unit mm)*
G04 Created by KiCad (PCBNEW 8.0.7) date 2024-12-28 17:49:15*
%MOMM*%
%LPD*%
G01*
G04 APERTURE LIST*
%ADD10C,0.200000*%
%ADD11C,0.100000*%
G04 APERTURE END LIST*
D10*
X14020000Y-9620000D02*
X16820000Y-9620000D01*
X16820000Y-12420000D01*
X14020000Y-12420000D01*
X14020000Y-9620000D01*
D11*
X14294560Y-11459200D02*
X14324560Y-11489200D01*
X14324560Y-11459200D02*
X14294560Y-11489200D01*
X14297100Y-10011400D02*
X14327100Y-10041400D01*
X14327100Y-10011400D02*
X14297100Y-10041400D01*
X14347900Y-11545000D02*
X14377900Y-11575000D01*
X14377900Y-11545000D02*
X14347900Y-11575000D01*
X14405000Y-11605000D02*
X14435000Y-11635000D01*
X14435000Y-11605000D02*
X14405000Y-11635000D01*
X14505000Y-11665000D02*
X14535000Y-11695000D01*
X14535000Y-11665000D02*
X14505000Y-11695000D01*
X14640000Y-12297400D02*
X14670000Y-12327400D01*
X14670000Y-12297400D02*
X14640000Y-12327400D01*
X14690800Y-10011400D02*
X14720800Y-10041400D01*
X14720800Y-10011400D02*
X14690800Y-10041400D01*
X14690800Y-11446500D02*
X14720800Y-11476500D01*
X14720800Y-11446500D02*
X14690800Y-11476500D01*
X14905000Y-10585000D02*
X14935000Y-10615000D01*
X14935000Y-10585000D02*
X14905000Y-10615000D01*
X14905000Y-10675000D02*
X14935000Y-10705000D01*
X14935000Y-10675000D02*
X14905000Y-10705000D01*
X14905000Y-10775000D02*
X14935000Y-10805000D01*
X14935000Y-10775000D02*
X14905000Y-10805000D01*
X14905000Y-10865000D02*
X14935000Y-10895000D01*
X14935000Y-10865000D02*
X14905000Y-10895000D01*
X14995000Y-10855000D02*
X15025000Y-10885000D01*
X15025000Y-10855000D02*
X14995000Y-10885000D01*
X15005000Y-10595000D02*
X15035000Y-10625000D01*
X15035000Y-10595000D02*
X15005000Y-10625000D01*
X15015000Y-10225000D02*
X15045000Y-10255000D01*
X15045000Y-10225000D02*
X15015000Y-10255000D01*
X15035000Y-11165000D02*
X15065000Y-11195000D01*
X15065000Y-11165000D02*
X15035000Y-11195000D01*
X15285000Y-10335000D02*
X15315000Y-10365000D01*
X15315000Y-10335000D02*
X15285000Y-10365000D01*
X15435000Y-10315000D02*
X15465000Y-10345000D01*
X15465000Y-10315000D02*
X15435000Y-10345000D01*
X15691560Y-11195040D02*
X15721560Y-11225040D01*
X15721560Y-11195040D02*
X15691560Y-11225040D01*
X15705000Y-10485000D02*
X15735000Y-10515000D01*
X15735000Y-10485000D02*
X15705000Y-10515000D01*
X15705000Y-10965000D02*
X15735000Y-10995000D01*
X15735000Y-10965000D02*
X15705000Y-10995000D01*
X15757600Y-10354300D02*
X15787600Y-10384300D01*
X15787600Y-10354300D02*
X15757600Y-10384300D01*
X15805000Y-10485000D02*
X15835000Y-10515000D01*
X15835000Y-10485000D02*
X15805000Y-10515000D01*
X15805000Y-10965000D02*
X15835000Y-10995000D01*
X15835000Y-10965000D02*
X15805000Y-10995000D01*
X15905000Y-10485000D02*
X15935000Y-10515000D01*
X15935000Y-10485000D02*
X15905000Y-10515000D01*
X15905000Y-10965000D02*
X15935000Y-10995000D01*
X15935000Y-10965000D02*
X15905000Y-10995000D01*
X16135000Y-11665000D02*
X16165000Y-11695000D01*
X16165000Y-11665000D02*
X16135000Y-11695000D01*
X16135000Y-12025000D02*
X16165000Y-12055000D01*
X16165000Y-12025000D02*
X16135000Y-12055000D01*
X16135000Y-12295000D02*
X16165000Y-12325000D01*
X16165000Y-12295000D02*
X16135000Y-12325000D01*
X16285000Y-12305000D02*
X16315000Y-12335000D01*
X16315000Y-12305000D02*
X16285000Y-12335000D01*
X16498500Y-11979900D02*
X16528500Y-12009900D01*
X16528500Y-11979900D02*
X16498500Y-12009900D01*
X16684700Y-11230600D02*
X16714700Y-11260600D01*
X16714700Y-11230600D02*
X16684700Y-11260600D01*
X16684700Y-11979900D02*
X16714700Y-12009900D01*
X16714700Y-11979900D02*
X16684700Y-12009900D01*
X15089000Y-9820000D02*
G75*
G02*
X14989000Y-9820000I-50000J0D01*
G01*
X14989000Y-9820000D02*
G75*
G02*
X15089000Y-9820000I50000J0D01*
G01*
X15343000Y-9820000D02*
G75*
G02*
X15243000Y-9820000I-50000J0D01*
G01*
X15243000Y-9820000D02*
G75*
G02*
X15343000Y-9820000I50000J0D01*
G01*
X15597000Y-9820000D02*
G75*
G02*
X15497000Y-9820000I-50000J0D01*
G01*
X15497000Y-9820000D02*
G75*
G02*
X15597000Y-9820000I50000J0D01*
G01*
X15851000Y-9820000D02*
G75*
G02*
X15751000Y-9820000I-50000J0D01*
G01*
X15751000Y-9820000D02*
G75*
G02*
X15851000Y-9820000I50000J0D01*
G01*
D10*
X14270777Y-12741484D02*
X14270777Y-12541484D01*
X14270777Y-12541484D02*
X14318396Y-12541484D01*
X14318396Y-12541484D02*
X14346967Y-12551008D01*
X14346967Y-12551008D02*
X14366015Y-12570055D01*
X14366015Y-12570055D02*
X14375539Y-12589103D01*
X14375539Y-12589103D02*
X14385062Y-12627198D01*
X14385062Y-12627198D02*
X14385062Y-12655769D01*
X14385062Y-12655769D02*
X14375539Y-12693865D01*
X14375539Y-12693865D02*
X14366015Y-12712912D01*
X14366015Y-12712912D02*
X14346967Y-12731960D01*
X14346967Y-12731960D02*
X14318396Y-12741484D01*
X14318396Y-12741484D02*
X14270777Y-12741484D01*
X14470777Y-12741484D02*
X14470777Y-12608150D01*
X14470777Y-12646246D02*
X14480301Y-12627198D01*
X14480301Y-12627198D02*
X14489824Y-12617674D01*
X14489824Y-12617674D02*
X14508872Y-12608150D01*
X14508872Y-12608150D02*
X14527920Y-12608150D01*
X14594586Y-12741484D02*
X14594586Y-12608150D01*
X14594586Y-12541484D02*
X14585062Y-12551008D01*
X14585062Y-12551008D02*
X14594586Y-12560531D01*
X14594586Y-12560531D02*
X14604110Y-12551008D01*
X14604110Y-12551008D02*
X14594586Y-12541484D01*
X14594586Y-12541484D02*
X14594586Y-12560531D01*
X14718396Y-12741484D02*
X14699348Y-12731960D01*
X14699348Y-12731960D02*
X14689824Y-12712912D01*
X14689824Y-12712912D02*
X14689824Y-12541484D01*
X14823158Y-12741484D02*
X14804110Y-12731960D01*
X14804110Y-12731960D02*
X14794586Y-12712912D01*
X14794586Y-12712912D02*
X14794586Y-12541484D01*
X15051729Y-12741484D02*
X15051729Y-12541484D01*
X15051729Y-12541484D02*
X15118396Y-12684341D01*
X15118396Y-12684341D02*
X15185062Y-12541484D01*
X15185062Y-12541484D02*
X15185062Y-12741484D01*
X15366015Y-12741484D02*
X15366015Y-12636722D01*
X15366015Y-12636722D02*
X15356491Y-12617674D01*
X15356491Y-12617674D02*
X15337443Y-12608150D01*
X15337443Y-12608150D02*
X15299348Y-12608150D01*
X15299348Y-12608150D02*
X15280301Y-12617674D01*
X15366015Y-12731960D02*
X15346967Y-12741484D01*
X15346967Y-12741484D02*
X15299348Y-12741484D01*
X15299348Y-12741484D02*
X15280301Y-12731960D01*
X15280301Y-12731960D02*
X15270777Y-12712912D01*
X15270777Y-12712912D02*
X15270777Y-12693865D01*
X15270777Y-12693865D02*
X15280301Y-12674817D01*
X15280301Y-12674817D02*
X15299348Y-12665293D01*
X15299348Y-12665293D02*
X15346967Y-12665293D01*
X15346967Y-12665293D02*
X15366015Y-12655769D01*
X15461253Y-12608150D02*
X15461253Y-12808150D01*
X15461253Y-12617674D02*
X15480301Y-12608150D01*
X15480301Y-12608150D02*
X15518396Y-12608150D01*
X15518396Y-12608150D02*
X15537443Y-12617674D01*
X15537443Y-12617674D02*
X15546967Y-12627198D01*
X15546967Y-12627198D02*
X15556491Y-12646246D01*
X15556491Y-12646246D02*
X15556491Y-12703388D01*
X15556491Y-12703388D02*
X15546967Y-12722436D01*
X15546967Y-12722436D02*
X15537443Y-12731960D01*
X15537443Y-12731960D02*
X15518396Y-12741484D01*
X15518396Y-12741484D02*
X15480301Y-12741484D01*
X15480301Y-12741484D02*
X15461253Y-12731960D01*
X15642205Y-12722436D02*
X15651729Y-12731960D01*
X15651729Y-12731960D02*
X15642205Y-12741484D01*
X15642205Y-12741484D02*
X15632682Y-12731960D01*
X15632682Y-12731960D02*
X15642205Y-12722436D01*
X15642205Y-12722436D02*
X15642205Y-12741484D01*
X15642205Y-12617674D02*
X15651729Y-12627198D01*
X15651729Y-12627198D02*
X15642205Y-12636722D01*
X15642205Y-12636722D02*
X15632682Y-12627198D01*
X15632682Y-12627198D02*
X15642205Y-12617674D01*
X15642205Y-12617674D02*
X15642205Y-12636722D01*
D11*
X13980000Y-13055000D02*
X14010000Y-13085000D01*
X14010000Y-13055000D02*
X13980000Y-13085000D01*
D10*
X14308872Y-12961484D02*
X14327920Y-12961484D01*
X14327920Y-12961484D02*
X14346967Y-12971008D01*
X14346967Y-12971008D02*
X14356491Y-12980531D01*
X14356491Y-12980531D02*
X14366015Y-12999579D01*
X14366015Y-12999579D02*
X14375539Y-13037674D01*
X14375539Y-13037674D02*
X14375539Y-13085293D01*
X14375539Y-13085293D02*
X14366015Y-13123388D01*
X14366015Y-13123388D02*
X14356491Y-13142436D01*
X14356491Y-13142436D02*
X14346967Y-13151960D01*
X14346967Y-13151960D02*
X14327920Y-13161484D01*
X14327920Y-13161484D02*
X14308872Y-13161484D01*
X14308872Y-13161484D02*
X14289824Y-13151960D01*
X14289824Y-13151960D02*
X14280301Y-13142436D01*
X14280301Y-13142436D02*
X14270777Y-13123388D01*
X14270777Y-13123388D02*
X14261253Y-13085293D01*
X14261253Y-13085293D02*
X14261253Y-13037674D01*
X14261253Y-13037674D02*
X14270777Y-12999579D01*
X14270777Y-12999579D02*
X14280301Y-12980531D01*
X14280301Y-12980531D02*
X14289824Y-12971008D01*
X14289824Y-12971008D02*
X14308872Y-12961484D01*
X14461253Y-13142436D02*
X14470777Y-13151960D01*
X14470777Y-13151960D02*
X14461253Y-13161484D01*
X14461253Y-13161484D02*
X14451729Y-13151960D01*
X14451729Y-13151960D02*
X14461253Y-13142436D01*
X14461253Y-13142436D02*
X14461253Y-13161484D01*
X14537443Y-12961484D02*
X14661253Y-12961484D01*
X14661253Y-12961484D02*
X14594586Y-13037674D01*
X14594586Y-13037674D02*
X14623158Y-13037674D01*
X14623158Y-13037674D02*
X14642205Y-13047198D01*
X14642205Y-13047198D02*
X14651729Y-13056722D01*
X14651729Y-13056722D02*
X14661253Y-13075769D01*
X14661253Y-13075769D02*
X14661253Y-13123388D01*
X14661253Y-13123388D02*
X14651729Y-13142436D01*
X14651729Y-13142436D02*
X14642205Y-13151960D01*
X14642205Y-13151960D02*
X14623158Y-13161484D01*
X14623158Y-13161484D02*
X14566015Y-13161484D01*
X14566015Y-13161484D02*
X14546967Y-13151960D01*
X14546967Y-13151960D02*
X14537443Y-13142436D01*
X14785062Y-12961484D02*
X14804110Y-12961484D01*
X14804110Y-12961484D02*
X14823158Y-12971008D01*
X14823158Y-12971008D02*
X14832682Y-12980531D01*
X14832682Y-12980531D02*
X14842205Y-12999579D01*
X14842205Y-12999579D02*
X14851729Y-13037674D01*
X14851729Y-13037674D02*
X14851729Y-13085293D01*
X14851729Y-13085293D02*
X14842205Y-13123388D01*
X14842205Y-13123388D02*
X14832682Y-13142436D01*
X14832682Y-13142436D02*
X14823158Y-13151960D01*
X14823158Y-13151960D02*
X14804110Y-13161484D01*
X14804110Y-13161484D02*
X14785062Y-13161484D01*
X14785062Y-13161484D02*
X14766015Y-13151960D01*
X14766015Y-13151960D02*
X14756491Y-13142436D01*
X14756491Y-13142436D02*
X14746967Y-13123388D01*
X14746967Y-13123388D02*
X14737443Y-13085293D01*
X14737443Y-13085293D02*
X14737443Y-13037674D01*
X14737443Y-13037674D02*
X14746967Y-12999579D01*
X14746967Y-12999579D02*
X14756491Y-12980531D01*
X14756491Y-12980531D02*
X14766015Y-12971008D01*
X14766015Y-12971008D02*
X14785062Y-12961484D01*
X14975539Y-12961484D02*
X14994586Y-12961484D01*
X14994586Y-12961484D02*
X15013634Y-12971008D01*
X15013634Y-12971008D02*
X15023158Y-12980531D01*
X15023158Y-12980531D02*
X15032682Y-12999579D01*
X15032682Y-12999579D02*
X15042205Y-13037674D01*
X15042205Y-13037674D02*
X15042205Y-13085293D01*
X15042205Y-13085293D02*
X15032682Y-13123388D01*
X15032682Y-13123388D02*
X15023158Y-13142436D01*
X15023158Y-13142436D02*
X15013634Y-13151960D01*
X15013634Y-13151960D02*
X14994586Y-13161484D01*
X14994586Y-13161484D02*
X14975539Y-13161484D01*
X14975539Y-13161484D02*
X14956491Y-13151960D01*
X14956491Y-13151960D02*
X14946967Y-13142436D01*
X14946967Y-13142436D02*
X14937443Y-13123388D01*
X14937443Y-13123388D02*
X14927920Y-13085293D01*
X14927920Y-13085293D02*
X14927920Y-13037674D01*
X14927920Y-13037674D02*
X14937443Y-12999579D01*
X14937443Y-12999579D02*
X14946967Y-12980531D01*
X14946967Y-12980531D02*
X14956491Y-12971008D01*
X14956491Y-12971008D02*
X14975539Y-12961484D01*
X15127920Y-13161484D02*
X15127920Y-13028150D01*
X15127920Y-13047198D02*
X15137443Y-13037674D01*
X15137443Y-13037674D02*
X15156491Y-13028150D01*
X15156491Y-13028150D02*
X15185063Y-13028150D01*
X15185063Y-13028150D02*
X15204110Y-13037674D01*
X15204110Y-13037674D02*
X15213634Y-13056722D01*
X15213634Y-13056722D02*
X15213634Y-13161484D01*
X15213634Y-13056722D02*
X15223158Y-13037674D01*
X15223158Y-13037674D02*
X15242205Y-13028150D01*
X15242205Y-13028150D02*
X15270777Y-13028150D01*
X15270777Y-13028150D02*
X15289824Y-13037674D01*
X15289824Y-13037674D02*
X15299348Y-13056722D01*
X15299348Y-13056722D02*
X15299348Y-13161484D01*
X15394586Y-13161484D02*
X15394586Y-13028150D01*
X15394586Y-13047198D02*
X15404110Y-13037674D01*
X15404110Y-13037674D02*
X15423158Y-13028150D01*
X15423158Y-13028150D02*
X15451729Y-13028150D01*
X15451729Y-13028150D02*
X15470777Y-13037674D01*
X15470777Y-13037674D02*
X15480301Y-13056722D01*
X15480301Y-13056722D02*
X15480301Y-13161484D01*
X15480301Y-13056722D02*
X15489824Y-13037674D01*
X15489824Y-13037674D02*
X15508872Y-13028150D01*
X15508872Y-13028150D02*
X15537443Y-13028150D01*
X15537443Y-13028150D02*
X15556491Y-13037674D01*
X15556491Y-13037674D02*
X15566015Y-13056722D01*
X15566015Y-13056722D02*
X15566015Y-13161484D01*
X15956491Y-12951960D02*
X15785063Y-13209103D01*
X16213634Y-12961484D02*
X16232682Y-12961484D01*
X16232682Y-12961484D02*
X16251729Y-12971008D01*
X16251729Y-12971008D02*
X16261253Y-12980531D01*
X16261253Y-12980531D02*
X16270777Y-12999579D01*
X16270777Y-12999579D02*
X16280301Y-13037674D01*
X16280301Y-13037674D02*
X16280301Y-13085293D01*
X16280301Y-13085293D02*
X16270777Y-13123388D01*
X16270777Y-13123388D02*
X16261253Y-13142436D01*
X16261253Y-13142436D02*
X16251729Y-13151960D01*
X16251729Y-13151960D02*
X16232682Y-13161484D01*
X16232682Y-13161484D02*
X16213634Y-13161484D01*
X16213634Y-13161484D02*
X16194586Y-13151960D01*
X16194586Y-13151960D02*
X16185063Y-13142436D01*
X16185063Y-13142436D02*
X16175539Y-13123388D01*
X16175539Y-13123388D02*
X16166015Y-13085293D01*
X16166015Y-13085293D02*
X16166015Y-13037674D01*
X16166015Y-13037674D02*
X16175539Y-12999579D01*
X16175539Y-12999579D02*
X16185063Y-12980531D01*
X16185063Y-12980531D02*
X16194586Y-12971008D01*
X16194586Y-12971008D02*
X16213634Y-12961484D01*
X16366015Y-13142436D02*
X16375539Y-13151960D01*
X16375539Y-13151960D02*
X16366015Y-13161484D01*
X16366015Y-13161484D02*
X16356491Y-13151960D01*
X16356491Y-13151960D02*
X16366015Y-13142436D01*
X16366015Y-13142436D02*
X16366015Y-13161484D01*
X16499348Y-12961484D02*
X16518396Y-12961484D01*
X16518396Y-12961484D02*
X16537444Y-12971008D01*
X16537444Y-12971008D02*
X16546967Y-12980531D01*
X16546967Y-12980531D02*
X16556491Y-12999579D01*
X16556491Y-12999579D02*
X16566015Y-13037674D01*
X16566015Y-13037674D02*
X16566015Y-13085293D01*
X16566015Y-13085293D02*
X16556491Y-13123388D01*
X16556491Y-13123388D02*
X16546967Y-13142436D01*
X16546967Y-13142436D02*
X16537444Y-13151960D01*
X16537444Y-13151960D02*
X16518396Y-13161484D01*
X16518396Y-13161484D02*
X16499348Y-13161484D01*
X16499348Y-13161484D02*
X16480301Y-13151960D01*
X16480301Y-13151960D02*
X16470777Y-13142436D01*
X16470777Y-13142436D02*
X16461253Y-13123388D01*
X16461253Y-13123388D02*
X16451729Y-13085293D01*
X16451729Y-13085293D02*
X16451729Y-13037674D01*
X16451729Y-13037674D02*
X16461253Y-12999579D01*
X16461253Y-12999579D02*
X16470777Y-12980531D01*
X16470777Y-12980531D02*
X16480301Y-12971008D01*
X16480301Y-12971008D02*
X16499348Y-12961484D01*
X16756491Y-13161484D02*
X16642206Y-13161484D01*
X16699348Y-13161484D02*
X16699348Y-12961484D01*
X16699348Y-12961484D02*
X16680301Y-12990055D01*
X16680301Y-12990055D02*
X16661253Y-13009103D01*
X16661253Y-13009103D02*
X16642206Y-13018627D01*
X16946968Y-13161484D02*
X16832682Y-13161484D01*
X16889825Y-13161484D02*
X16889825Y-12961484D01*
X16889825Y-12961484D02*
X16870777Y-12990055D01*
X16870777Y-12990055D02*
X16851729Y-13009103D01*
X16851729Y-13009103D02*
X16832682Y-13018627D01*
X17061253Y-13047198D02*
X17042206Y-13037674D01*
X17042206Y-13037674D02*
X17032682Y-13028150D01*
X17032682Y-13028150D02*
X17023158Y-13009103D01*
X17023158Y-13009103D02*
X17023158Y-12999579D01*
X17023158Y-12999579D02*
X17032682Y-12980531D01*
X17032682Y-12980531D02*
X17042206Y-12971008D01*
X17042206Y-12971008D02*
X17061253Y-12961484D01*
X17061253Y-12961484D02*
X17099349Y-12961484D01*
X17099349Y-12961484D02*
X17118396Y-12971008D01*
X17118396Y-12971008D02*
X17127920Y-12980531D01*
X17127920Y-12980531D02*
X17137444Y-12999579D01*
X17137444Y-12999579D02*
X17137444Y-13009103D01*
X17137444Y-13009103D02*
X17127920Y-13028150D01*
X17127920Y-13028150D02*
X17118396Y-13037674D01*
X17118396Y-13037674D02*
X17099349Y-13047198D01*
X17099349Y-13047198D02*
X17061253Y-13047198D01*
X17061253Y-13047198D02*
X17042206Y-13056722D01*
X17042206Y-13056722D02*
X17032682Y-13066246D01*
X17032682Y-13066246D02*
X17023158Y-13085293D01*
X17023158Y-13085293D02*
X17023158Y-13123388D01*
X17023158Y-13123388D02*
X17032682Y-13142436D01*
X17032682Y-13142436D02*
X17042206Y-13151960D01*
X17042206Y-13151960D02*
X17061253Y-13161484D01*
X17061253Y-13161484D02*
X17099349Y-13161484D01*
X17099349Y-13161484D02*
X17118396Y-13151960D01*
X17118396Y-13151960D02*
X17127920Y-13142436D01*
X17127920Y-13142436D02*
X17137444Y-13123388D01*
X17137444Y-13123388D02*
X17137444Y-13085293D01*
X17137444Y-13085293D02*
X17127920Y-13066246D01*
X17127920Y-13066246D02*
X17118396Y-13056722D01*
X17118396Y-13056722D02*
X17099349Y-13047198D01*
X17213634Y-12961484D02*
X17213634Y-12999579D01*
X17289825Y-12961484D02*
X17289825Y-12999579D01*
X17585063Y-13237674D02*
X17575539Y-13228150D01*
X17575539Y-13228150D02*
X17556491Y-13199579D01*
X17556491Y-13199579D02*
X17546968Y-13180531D01*
X17546968Y-13180531D02*
X17537444Y-13151960D01*
X17537444Y-13151960D02*
X17527920Y-13104341D01*
X17527920Y-13104341D02*
X17527920Y-13066246D01*
X17527920Y-13066246D02*
X17537444Y-13018627D01*
X17537444Y-13018627D02*
X17546968Y-12990055D01*
X17546968Y-12990055D02*
X17556491Y-12971008D01*
X17556491Y-12971008D02*
X17575539Y-12942436D01*
X17575539Y-12942436D02*
X17585063Y-12932912D01*
X17642206Y-12961484D02*
X17766015Y-12961484D01*
X17766015Y-12961484D02*
X17699349Y-13037674D01*
X17699349Y-13037674D02*
X17727920Y-13037674D01*
X17727920Y-13037674D02*
X17746968Y-13047198D01*
X17746968Y-13047198D02*
X17756491Y-13056722D01*
X17756491Y-13056722D02*
X17766015Y-13075769D01*
X17766015Y-13075769D02*
X17766015Y-13123388D01*
X17766015Y-13123388D02*
X17756491Y-13142436D01*
X17756491Y-13142436D02*
X17746968Y-13151960D01*
X17746968Y-13151960D02*
X17727920Y-13161484D01*
X17727920Y-13161484D02*
X17670777Y-13161484D01*
X17670777Y-13161484D02*
X17651730Y-13151960D01*
X17651730Y-13151960D02*
X17642206Y-13142436D01*
X17832682Y-12961484D02*
X17956491Y-12961484D01*
X17956491Y-12961484D02*
X17889825Y-13037674D01*
X17889825Y-13037674D02*
X17918396Y-13037674D01*
X17918396Y-13037674D02*
X17937444Y-13047198D01*
X17937444Y-13047198D02*
X17946968Y-13056722D01*
X17946968Y-13056722D02*
X17956491Y-13075769D01*
X17956491Y-13075769D02*
X17956491Y-13123388D01*
X17956491Y-13123388D02*
X17946968Y-13142436D01*
X17946968Y-13142436D02*
X17937444Y-13151960D01*
X17937444Y-13151960D02*
X17918396Y-13161484D01*
X17918396Y-13161484D02*
X17861253Y-13161484D01*
X17861253Y-13161484D02*
X17842206Y-13151960D01*
X17842206Y-13151960D02*
X17832682Y-13142436D01*
X18194587Y-13161484D02*
X18194587Y-12961484D01*
X18280301Y-13161484D02*
X18280301Y-13056722D01*
X18280301Y-13056722D02*
X18270777Y-13037674D01*
X18270777Y-13037674D02*
X18251730Y-13028150D01*
X18251730Y-13028150D02*
X18223158Y-13028150D01*
X18223158Y-13028150D02*
X18204111Y-13037674D01*
X18204111Y-13037674D02*
X18194587Y-13047198D01*
X18404111Y-13161484D02*
X18385063Y-13151960D01*
X18385063Y-13151960D02*
X18375539Y-13142436D01*
X18375539Y-13142436D02*
X18366015Y-13123388D01*
X18366015Y-13123388D02*
X18366015Y-13066246D01*
X18366015Y-13066246D02*
X18375539Y-13047198D01*
X18375539Y-13047198D02*
X18385063Y-13037674D01*
X18385063Y-13037674D02*
X18404111Y-13028150D01*
X18404111Y-13028150D02*
X18432682Y-13028150D01*
X18432682Y-13028150D02*
X18451730Y-13037674D01*
X18451730Y-13037674D02*
X18461253Y-13047198D01*
X18461253Y-13047198D02*
X18470777Y-13066246D01*
X18470777Y-13066246D02*
X18470777Y-13123388D01*
X18470777Y-13123388D02*
X18461253Y-13142436D01*
X18461253Y-13142436D02*
X18451730Y-13151960D01*
X18451730Y-13151960D02*
X18432682Y-13161484D01*
X18432682Y-13161484D02*
X18404111Y-13161484D01*
X18585063Y-13161484D02*
X18566015Y-13151960D01*
X18566015Y-13151960D02*
X18556492Y-13132912D01*
X18556492Y-13132912D02*
X18556492Y-12961484D01*
X18737444Y-13151960D02*
X18718396Y-13161484D01*
X18718396Y-13161484D02*
X18680301Y-13161484D01*
X18680301Y-13161484D02*
X18661253Y-13151960D01*
X18661253Y-13151960D02*
X18651730Y-13132912D01*
X18651730Y-13132912D02*
X18651730Y-13056722D01*
X18651730Y-13056722D02*
X18661253Y-13037674D01*
X18661253Y-13037674D02*
X18680301Y-13028150D01*
X18680301Y-13028150D02*
X18718396Y-13028150D01*
X18718396Y-13028150D02*
X18737444Y-13037674D01*
X18737444Y-13037674D02*
X18746968Y-13056722D01*
X18746968Y-13056722D02*
X18746968Y-13075769D01*
X18746968Y-13075769D02*
X18651730Y-13094817D01*
X18823158Y-13151960D02*
X18842206Y-13161484D01*
X18842206Y-13161484D02*
X18880301Y-13161484D01*
X18880301Y-13161484D02*
X18899349Y-13151960D01*
X18899349Y-13151960D02*
X18908873Y-13132912D01*
X18908873Y-13132912D02*
X18908873Y-13123388D01*
X18908873Y-13123388D02*
X18899349Y-13104341D01*
X18899349Y-13104341D02*
X18880301Y-13094817D01*
X18880301Y-13094817D02*
X18851730Y-13094817D01*
X18851730Y-13094817D02*
X18832682Y-13085293D01*
X18832682Y-13085293D02*
X18823158Y-13066246D01*
X18823158Y-13066246D02*
X18823158Y-13056722D01*
X18823158Y-13056722D02*
X18832682Y-13037674D01*
X18832682Y-13037674D02*
X18851730Y-13028150D01*
X18851730Y-13028150D02*
X18880301Y-13028150D01*
X18880301Y-13028150D02*
X18899349Y-13037674D01*
X18975539Y-13237674D02*
X18985063Y-13228150D01*
X18985063Y-13228150D02*
X19004111Y-13199579D01*
X19004111Y-13199579D02*
X19013634Y-13180531D01*
X19013634Y-13180531D02*
X19023158Y-13151960D01*
X19023158Y-13151960D02*
X19032682Y-13104341D01*
X19032682Y-13104341D02*
X19032682Y-13066246D01*
X19032682Y-13066246D02*
X19023158Y-13018627D01*
X19023158Y-13018627D02*
X19013634Y-12990055D01*
X19013634Y-12990055D02*
X19004111Y-12971008D01*
X19004111Y-12971008D02*
X18985063Y-12942436D01*
X18985063Y-12942436D02*
X18975539Y-12932912D01*
D11*
X14010000Y-13334000D02*
G75*
G02*
X13910000Y-13334000I-50000J0D01*
G01*
X13910000Y-13334000D02*
G75*
G02*
X14010000Y-13334000I50000J0D01*
G01*
D10*
X14375539Y-13425484D02*
X14261253Y-13425484D01*
X14318396Y-13425484D02*
X14318396Y-13225484D01*
X14318396Y-13225484D02*
X14299348Y-13254055D01*
X14299348Y-13254055D02*
X14280301Y-13273103D01*
X14280301Y-13273103D02*
X14261253Y-13282627D01*
X14461253Y-13406436D02*
X14470777Y-13415960D01*
X14470777Y-13415960D02*
X14461253Y-13425484D01*
X14461253Y-13425484D02*
X14451729Y-13415960D01*
X14451729Y-13415960D02*
X14461253Y-13406436D01*
X14461253Y-13406436D02*
X14461253Y-13425484D01*
X14594586Y-13225484D02*
X14613634Y-13225484D01*
X14613634Y-13225484D02*
X14632682Y-13235008D01*
X14632682Y-13235008D02*
X14642205Y-13244531D01*
X14642205Y-13244531D02*
X14651729Y-13263579D01*
X14651729Y-13263579D02*
X14661253Y-13301674D01*
X14661253Y-13301674D02*
X14661253Y-13349293D01*
X14661253Y-13349293D02*
X14651729Y-13387388D01*
X14651729Y-13387388D02*
X14642205Y-13406436D01*
X14642205Y-13406436D02*
X14632682Y-13415960D01*
X14632682Y-13415960D02*
X14613634Y-13425484D01*
X14613634Y-13425484D02*
X14594586Y-13425484D01*
X14594586Y-13425484D02*
X14575539Y-13415960D01*
X14575539Y-13415960D02*
X14566015Y-13406436D01*
X14566015Y-13406436D02*
X14556491Y-13387388D01*
X14556491Y-13387388D02*
X14546967Y-13349293D01*
X14546967Y-13349293D02*
X14546967Y-13301674D01*
X14546967Y-13301674D02*
X14556491Y-13263579D01*
X14556491Y-13263579D02*
X14566015Y-13244531D01*
X14566015Y-13244531D02*
X14575539Y-13235008D01*
X14575539Y-13235008D02*
X14594586Y-13225484D01*
X14785062Y-13225484D02*
X14804110Y-13225484D01*
X14804110Y-13225484D02*
X14823158Y-13235008D01*
X14823158Y-13235008D02*
X14832682Y-13244531D01*
X14832682Y-13244531D02*
X14842205Y-13263579D01*
X14842205Y-13263579D02*
X14851729Y-13301674D01*
X14851729Y-13301674D02*
X14851729Y-13349293D01*
X14851729Y-13349293D02*
X14842205Y-13387388D01*
X14842205Y-13387388D02*
X14832682Y-13406436D01*
X14832682Y-13406436D02*
X14823158Y-13415960D01*
X14823158Y-13415960D02*
X14804110Y-13425484D01*
X14804110Y-13425484D02*
X14785062Y-13425484D01*
X14785062Y-13425484D02*
X14766015Y-13415960D01*
X14766015Y-13415960D02*
X14756491Y-13406436D01*
X14756491Y-13406436D02*
X14746967Y-13387388D01*
X14746967Y-13387388D02*
X14737443Y-13349293D01*
X14737443Y-13349293D02*
X14737443Y-13301674D01*
X14737443Y-13301674D02*
X14746967Y-13263579D01*
X14746967Y-13263579D02*
X14756491Y-13244531D01*
X14756491Y-13244531D02*
X14766015Y-13235008D01*
X14766015Y-13235008D02*
X14785062Y-13225484D01*
X14975539Y-13225484D02*
X14994586Y-13225484D01*
X14994586Y-13225484D02*
X15013634Y-13235008D01*
X15013634Y-13235008D02*
X15023158Y-13244531D01*
X15023158Y-13244531D02*
X15032682Y-13263579D01*
X15032682Y-13263579D02*
X15042205Y-13301674D01*
X15042205Y-13301674D02*
X15042205Y-13349293D01*
X15042205Y-13349293D02*
X15032682Y-13387388D01*
X15032682Y-13387388D02*
X15023158Y-13406436D01*
X15023158Y-13406436D02*
X15013634Y-13415960D01*
X15013634Y-13415960D02*
X14994586Y-13425484D01*
X14994586Y-13425484D02*
X14975539Y-13425484D01*
X14975539Y-13425484D02*
X14956491Y-13415960D01*
X14956491Y-13415960D02*
X14946967Y-13406436D01*
X14946967Y-13406436D02*
X14937443Y-13387388D01*
X14937443Y-13387388D02*
X14927920Y-13349293D01*
X14927920Y-13349293D02*
X14927920Y-13301674D01*
X14927920Y-13301674D02*
X14937443Y-13263579D01*
X14937443Y-13263579D02*
X14946967Y-13244531D01*
X14946967Y-13244531D02*
X14956491Y-13235008D01*
X14956491Y-13235008D02*
X14975539Y-13225484D01*
X15127920Y-13425484D02*
X15127920Y-13292150D01*
X15127920Y-13311198D02*
X15137443Y-13301674D01*
X15137443Y-13301674D02*
X15156491Y-13292150D01*
X15156491Y-13292150D02*
X15185063Y-13292150D01*
X15185063Y-13292150D02*
X15204110Y-13301674D01*
X15204110Y-13301674D02*
X15213634Y-13320722D01*
X15213634Y-13320722D02*
X15213634Y-13425484D01*
X15213634Y-13320722D02*
X15223158Y-13301674D01*
X15223158Y-13301674D02*
X15242205Y-13292150D01*
X15242205Y-13292150D02*
X15270777Y-13292150D01*
X15270777Y-13292150D02*
X15289824Y-13301674D01*
X15289824Y-13301674D02*
X15299348Y-13320722D01*
X15299348Y-13320722D02*
X15299348Y-13425484D01*
X15394586Y-13425484D02*
X15394586Y-13292150D01*
X15394586Y-13311198D02*
X15404110Y-13301674D01*
X15404110Y-13301674D02*
X15423158Y-13292150D01*
X15423158Y-13292150D02*
X15451729Y-13292150D01*
X15451729Y-13292150D02*
X15470777Y-13301674D01*
X15470777Y-13301674D02*
X15480301Y-13320722D01*
X15480301Y-13320722D02*
X15480301Y-13425484D01*
X15480301Y-13320722D02*
X15489824Y-13301674D01*
X15489824Y-13301674D02*
X15508872Y-13292150D01*
X15508872Y-13292150D02*
X15537443Y-13292150D01*
X15537443Y-13292150D02*
X15556491Y-13301674D01*
X15556491Y-13301674D02*
X15566015Y-13320722D01*
X15566015Y-13320722D02*
X15566015Y-13425484D01*
X15956491Y-13215960D02*
X15785063Y-13473103D01*
X16213634Y-13225484D02*
X16232682Y-13225484D01*
X16232682Y-13225484D02*
X16251729Y-13235008D01*
X16251729Y-13235008D02*
X16261253Y-13244531D01*
X16261253Y-13244531D02*
X16270777Y-13263579D01*
X16270777Y-13263579D02*
X16280301Y-13301674D01*
X16280301Y-13301674D02*
X16280301Y-13349293D01*
X16280301Y-13349293D02*
X16270777Y-13387388D01*
X16270777Y-13387388D02*
X16261253Y-13406436D01*
X16261253Y-13406436D02*
X16251729Y-13415960D01*
X16251729Y-13415960D02*
X16232682Y-13425484D01*
X16232682Y-13425484D02*
X16213634Y-13425484D01*
X16213634Y-13425484D02*
X16194586Y-13415960D01*
X16194586Y-13415960D02*
X16185063Y-13406436D01*
X16185063Y-13406436D02*
X16175539Y-13387388D01*
X16175539Y-13387388D02*
X16166015Y-13349293D01*
X16166015Y-13349293D02*
X16166015Y-13301674D01*
X16166015Y-13301674D02*
X16175539Y-13263579D01*
X16175539Y-13263579D02*
X16185063Y-13244531D01*
X16185063Y-13244531D02*
X16194586Y-13235008D01*
X16194586Y-13235008D02*
X16213634Y-13225484D01*
X16366015Y-13406436D02*
X16375539Y-13415960D01*
X16375539Y-13415960D02*
X16366015Y-13425484D01*
X16366015Y-13425484D02*
X16356491Y-13415960D01*
X16356491Y-13415960D02*
X16366015Y-13406436D01*
X16366015Y-13406436D02*
X16366015Y-13425484D01*
X16499348Y-13225484D02*
X16518396Y-13225484D01*
X16518396Y-13225484D02*
X16537444Y-13235008D01*
X16537444Y-13235008D02*
X16546967Y-13244531D01*
X16546967Y-13244531D02*
X16556491Y-13263579D01*
X16556491Y-13263579D02*
X16566015Y-13301674D01*
X16566015Y-13301674D02*
X16566015Y-13349293D01*
X16566015Y-13349293D02*
X16556491Y-13387388D01*
X16556491Y-13387388D02*
X16546967Y-13406436D01*
X16546967Y-13406436D02*
X16537444Y-13415960D01*
X16537444Y-13415960D02*
X16518396Y-13425484D01*
X16518396Y-13425484D02*
X16499348Y-13425484D01*
X16499348Y-13425484D02*
X16480301Y-13415960D01*
X16480301Y-13415960D02*
X16470777Y-13406436D01*
X16470777Y-13406436D02*
X16461253Y-13387388D01*
X16461253Y-13387388D02*
X16451729Y-13349293D01*
X16451729Y-13349293D02*
X16451729Y-13301674D01*
X16451729Y-13301674D02*
X16461253Y-13263579D01*
X16461253Y-13263579D02*
X16470777Y-13244531D01*
X16470777Y-13244531D02*
X16480301Y-13235008D01*
X16480301Y-13235008D02*
X16499348Y-13225484D01*
X16632682Y-13225484D02*
X16756491Y-13225484D01*
X16756491Y-13225484D02*
X16689825Y-13301674D01*
X16689825Y-13301674D02*
X16718396Y-13301674D01*
X16718396Y-13301674D02*
X16737444Y-13311198D01*
X16737444Y-13311198D02*
X16746967Y-13320722D01*
X16746967Y-13320722D02*
X16756491Y-13339769D01*
X16756491Y-13339769D02*
X16756491Y-13387388D01*
X16756491Y-13387388D02*
X16746967Y-13406436D01*
X16746967Y-13406436D02*
X16737444Y-13415960D01*
X16737444Y-13415960D02*
X16718396Y-13425484D01*
X16718396Y-13425484D02*
X16661253Y-13425484D01*
X16661253Y-13425484D02*
X16642206Y-13415960D01*
X16642206Y-13415960D02*
X16632682Y-13406436D01*
X16851729Y-13425484D02*
X16889825Y-13425484D01*
X16889825Y-13425484D02*
X16908872Y-13415960D01*
X16908872Y-13415960D02*
X16918396Y-13406436D01*
X16918396Y-13406436D02*
X16937444Y-13377865D01*
X16937444Y-13377865D02*
X16946968Y-13339769D01*
X16946968Y-13339769D02*
X16946968Y-13263579D01*
X16946968Y-13263579D02*
X16937444Y-13244531D01*
X16937444Y-13244531D02*
X16927920Y-13235008D01*
X16927920Y-13235008D02*
X16908872Y-13225484D01*
X16908872Y-13225484D02*
X16870777Y-13225484D01*
X16870777Y-13225484D02*
X16851729Y-13235008D01*
X16851729Y-13235008D02*
X16842206Y-13244531D01*
X16842206Y-13244531D02*
X16832682Y-13263579D01*
X16832682Y-13263579D02*
X16832682Y-13311198D01*
X16832682Y-13311198D02*
X16842206Y-13330246D01*
X16842206Y-13330246D02*
X16851729Y-13339769D01*
X16851729Y-13339769D02*
X16870777Y-13349293D01*
X16870777Y-13349293D02*
X16908872Y-13349293D01*
X16908872Y-13349293D02*
X16927920Y-13339769D01*
X16927920Y-13339769D02*
X16937444Y-13330246D01*
X16937444Y-13330246D02*
X16946968Y-13311198D01*
X17118396Y-13292150D02*
X17118396Y-13425484D01*
X17070777Y-13215960D02*
X17023158Y-13358817D01*
X17023158Y-13358817D02*
X17146968Y-13358817D01*
X17213634Y-13225484D02*
X17213634Y-13263579D01*
X17289825Y-13225484D02*
X17289825Y-13263579D01*
X17585063Y-13501674D02*
X17575539Y-13492150D01*
X17575539Y-13492150D02*
X17556491Y-13463579D01*
X17556491Y-13463579D02*
X17546968Y-13444531D01*
X17546968Y-13444531D02*
X17537444Y-13415960D01*
X17537444Y-13415960D02*
X17527920Y-13368341D01*
X17527920Y-13368341D02*
X17527920Y-13330246D01*
X17527920Y-13330246D02*
X17537444Y-13282627D01*
X17537444Y-13282627D02*
X17546968Y-13254055D01*
X17546968Y-13254055D02*
X17556491Y-13235008D01*
X17556491Y-13235008D02*
X17575539Y-13206436D01*
X17575539Y-13206436D02*
X17585063Y-13196912D01*
X17746968Y-13292150D02*
X17746968Y-13425484D01*
X17699349Y-13215960D02*
X17651730Y-13358817D01*
X17651730Y-13358817D02*
X17775539Y-13358817D01*
X18004111Y-13425484D02*
X18004111Y-13225484D01*
X18089825Y-13425484D02*
X18089825Y-13320722D01*
X18089825Y-13320722D02*
X18080301Y-13301674D01*
X18080301Y-13301674D02*
X18061253Y-13292150D01*
X18061253Y-13292150D02*
X18032682Y-13292150D01*
X18032682Y-13292150D02*
X18013634Y-13301674D01*
X18013634Y-13301674D02*
X18004111Y-13311198D01*
X18213634Y-13425484D02*
X18194587Y-13415960D01*
X18194587Y-13415960D02*
X18185063Y-13406436D01*
X18185063Y-13406436D02*
X18175539Y-13387388D01*
X18175539Y-13387388D02*
X18175539Y-13330246D01*
X18175539Y-13330246D02*
X18185063Y-13311198D01*
X18185063Y-13311198D02*
X18194587Y-13301674D01*
X18194587Y-13301674D02*
X18213634Y-13292150D01*
X18213634Y-13292150D02*
X18242206Y-13292150D01*
X18242206Y-13292150D02*
X18261253Y-13301674D01*
X18261253Y-13301674D02*
X18270777Y-13311198D01*
X18270777Y-13311198D02*
X18280301Y-13330246D01*
X18280301Y-13330246D02*
X18280301Y-13387388D01*
X18280301Y-13387388D02*
X18270777Y-13406436D01*
X18270777Y-13406436D02*
X18261253Y-13415960D01*
X18261253Y-13415960D02*
X18242206Y-13425484D01*
X18242206Y-13425484D02*
X18213634Y-13425484D01*
X18394587Y-13425484D02*
X18375539Y-13415960D01*
X18375539Y-13415960D02*
X18366015Y-13396912D01*
X18366015Y-13396912D02*
X18366015Y-13225484D01*
X18546968Y-13415960D02*
X18527920Y-13425484D01*
X18527920Y-13425484D02*
X18489825Y-13425484D01*
X18489825Y-13425484D02*
X18470777Y-13415960D01*
X18470777Y-13415960D02*
X18461253Y-13396912D01*
X18461253Y-13396912D02*
X18461253Y-13320722D01*
X18461253Y-13320722D02*
X18470777Y-13301674D01*
X18470777Y-13301674D02*
X18489825Y-13292150D01*
X18489825Y-13292150D02*
X18527920Y-13292150D01*
X18527920Y-13292150D02*
X18546968Y-13301674D01*
X18546968Y-13301674D02*
X18556492Y-13320722D01*
X18556492Y-13320722D02*
X18556492Y-13339769D01*
X18556492Y-13339769D02*
X18461253Y-13358817D01*
X18632682Y-13415960D02*
X18651730Y-13425484D01*
X18651730Y-13425484D02*
X18689825Y-13425484D01*
X18689825Y-13425484D02*
X18708873Y-13415960D01*
X18708873Y-13415960D02*
X18718396Y-13396912D01*
X18718396Y-13396912D02*
X18718396Y-13387388D01*
X18718396Y-13387388D02*
X18708873Y-13368341D01*
X18708873Y-13368341D02*
X18689825Y-13358817D01*
X18689825Y-13358817D02*
X18661253Y-13358817D01*
X18661253Y-13358817D02*
X18642206Y-13349293D01*
X18642206Y-13349293D02*
X18632682Y-13330246D01*
X18632682Y-13330246D02*
X18632682Y-13320722D01*
X18632682Y-13320722D02*
X18642206Y-13301674D01*
X18642206Y-13301674D02*
X18661253Y-13292150D01*
X18661253Y-13292150D02*
X18689825Y-13292150D01*
X18689825Y-13292150D02*
X18708873Y-13301674D01*
X18785063Y-13501674D02*
X18794587Y-13492150D01*
X18794587Y-13492150D02*
X18813634Y-13463579D01*
X18813634Y-13463579D02*
X18823158Y-13444531D01*
X18823158Y-13444531D02*
X18832682Y-13415960D01*
X18832682Y-13415960D02*
X18842206Y-13368341D01*
X18842206Y-13368341D02*
X18842206Y-13330246D01*
X18842206Y-13330246D02*
X18832682Y-13282627D01*
X18832682Y-13282627D02*
X18823158Y-13254055D01*
X18823158Y-13254055D02*
X18813634Y-13235008D01*
X18813634Y-13235008D02*
X18794587Y-13206436D01*
X18794587Y-13206436D02*
X18785063Y-13196912D01*
M02*
