%TF.GenerationSoftware,KiCad,Pcbnew,8.0.7*%
%TF.CreationDate,2024-12-28T17:49:01+01:00*%
%TF.ProjectId,usb-c-power-meter,7573622d-632d-4706-9f77-65722d6d6574,rev?*%
%TF.SameCoordinates,Original*%
%TF.FileFunction,Soldermask,Top*%
%TF.FilePolarity,Negative*%
%FSLAX46Y46*%
G04 Gerber Fmt 4.6, Leading zero omitted, Abs format (unit mm)*
G04 Created by KiCad (PCBNEW 8.0.7) date 2024-12-28 17:49:01*
%MOMM*%
%LPD*%
G01*
G04 APERTURE LIST*
G04 Aperture macros list*
%AMRoundRect*
0 Rectangle with rounded corners*
0 $1 Rounding radius*
0 $2 $3 $4 $5 $6 $7 $8 $9 X,Y pos of 4 corners*
0 Add a 4 corners polygon primitive as box body*
4,1,4,$2,$3,$4,$5,$6,$7,$8,$9,$2,$3,0*
0 Add four circle primitives for the rounded corners*
1,1,$1+$1,$2,$3*
1,1,$1+$1,$4,$5*
1,1,$1+$1,$6,$7*
1,1,$1+$1,$8,$9*
0 Add four rect primitives between the rounded corners*
20,1,$1+$1,$2,$3,$4,$5,0*
20,1,$1+$1,$4,$5,$6,$7,0*
20,1,$1+$1,$6,$7,$8,$9,0*
20,1,$1+$1,$8,$9,$2,$3,0*%
G04 Aperture macros list end*
%ADD10RoundRect,0.225000X0.225000X0.250000X-0.225000X0.250000X-0.225000X-0.250000X0.225000X-0.250000X0*%
%ADD11RoundRect,0.150000X0.825000X0.150000X-0.825000X0.150000X-0.825000X-0.150000X0.825000X-0.150000X0*%
%ADD12RoundRect,0.150000X-0.512500X-0.150000X0.512500X-0.150000X0.512500X0.150000X-0.512500X0.150000X0*%
%ADD13RoundRect,0.225000X0.250000X-0.225000X0.250000X0.225000X-0.250000X0.225000X-0.250000X-0.225000X0*%
%ADD14R,1.700000X1.700000*%
%ADD15O,1.700000X1.700000*%
%ADD16RoundRect,0.200000X0.200000X0.275000X-0.200000X0.275000X-0.200000X-0.275000X0.200000X-0.275000X0*%
%ADD17RoundRect,0.200000X0.275000X-0.200000X0.275000X0.200000X-0.275000X0.200000X-0.275000X-0.200000X0*%
%ADD18RoundRect,0.062500X0.125000X0.177000X-0.125000X0.177000X-0.125000X-0.177000X0.125000X-0.177000X0*%
%ADD19RoundRect,0.068750X0.068750X0.068750X-0.068750X0.068750X-0.068750X-0.068750X0.068750X-0.068750X0*%
%ADD20RoundRect,0.250000X-0.475000X0.250000X-0.475000X-0.250000X0.475000X-0.250000X0.475000X0.250000X0*%
%ADD21RoundRect,0.250000X-0.650000X0.325000X-0.650000X-0.325000X0.650000X-0.325000X0.650000X0.325000X0*%
%ADD22RoundRect,0.225000X0.375000X-0.225000X0.375000X0.225000X-0.375000X0.225000X-0.375000X-0.225000X0*%
%ADD23C,2.200000*%
%ADD24C,0.650000*%
%ADD25RoundRect,0.150000X-0.425000X0.150000X-0.425000X-0.150000X0.425000X-0.150000X0.425000X0.150000X0*%
%ADD26RoundRect,0.075000X-0.500000X0.075000X-0.500000X-0.075000X0.500000X-0.075000X0.500000X0.075000X0*%
%ADD27RoundRect,0.250000X-0.750000X0.840000X-0.750000X-0.840000X0.750000X-0.840000X0.750000X0.840000X0*%
%ADD28RoundRect,0.112500X0.112500X0.237500X-0.112500X0.237500X-0.112500X-0.237500X0.112500X-0.237500X0*%
%ADD29R,0.400000X1.200000*%
G04 APERTURE END LIST*
D10*
%TO.C,C6*%
X160250000Y-123100000D03*
X158700000Y-123100000D03*
%TD*%
D11*
%TO.C,U4*%
X156675000Y-123105000D03*
X156675000Y-121835000D03*
X156675000Y-120565000D03*
X156675000Y-119295000D03*
X151725000Y-119295000D03*
X151725000Y-120565000D03*
X151725000Y-121835000D03*
X151725000Y-123105000D03*
%TD*%
D12*
%TO.C,U2*%
X155862500Y-113250000D03*
X155862500Y-114200000D03*
X155862500Y-115150000D03*
X158137500Y-115150000D03*
X158137500Y-113250000D03*
%TD*%
D13*
%TO.C,C1*%
X156200000Y-103300000D03*
X156200000Y-101750000D03*
%TD*%
D10*
%TO.C,C4*%
X166769000Y-111440000D03*
X165219000Y-111440000D03*
%TD*%
D14*
%TO.C,J3*%
X150390000Y-98200000D03*
D15*
X152930000Y-98200000D03*
X155470000Y-98200000D03*
X158010000Y-98200000D03*
%TD*%
D16*
%TO.C,R8*%
X163821000Y-111440000D03*
X162171000Y-111440000D03*
%TD*%
D17*
%TO.C,R7*%
X151500000Y-102350000D03*
X151500000Y-100700000D03*
%TD*%
D16*
%TO.C,R9*%
X160290400Y-117942400D03*
X158640400Y-117942400D03*
%TD*%
D18*
%TO.C,U3*%
X154587000Y-105000000D03*
X153813000Y-105000000D03*
D19*
X154600000Y-104498000D03*
X154200000Y-104498000D03*
X153800000Y-104498000D03*
X154600000Y-104098000D03*
X154200000Y-104098000D03*
X153800000Y-104098000D03*
%TD*%
D20*
%TO.C,C5*%
X160062800Y-113268800D03*
X160062800Y-115168800D03*
%TD*%
D21*
%TO.C,C3*%
X153789000Y-113345000D03*
X153789000Y-116295000D03*
%TD*%
D17*
%TO.C,R5*%
X154500000Y-102350000D03*
X154500000Y-100700000D03*
%TD*%
D22*
%TO.C,D3*%
X163441000Y-109916000D03*
X163441000Y-106616000D03*
%TD*%
D23*
%TO.C,H2*%
X166200000Y-98200000D03*
%TD*%
D24*
%TO.C,J1*%
X146505000Y-104510000D03*
X146505000Y-110290000D03*
D25*
X147580000Y-104200000D03*
X147580000Y-105000000D03*
D26*
X147580000Y-106150000D03*
X147580000Y-107150000D03*
X147580000Y-107650000D03*
X147580000Y-108650000D03*
D25*
X147580000Y-109800000D03*
X147580000Y-110600000D03*
X147580000Y-110600000D03*
X147580000Y-109800000D03*
D26*
X147580000Y-109150000D03*
X147580000Y-108150000D03*
X147580000Y-106650000D03*
X147580000Y-105650000D03*
D25*
X147580000Y-105000000D03*
X147580000Y-104200000D03*
D27*
X147005000Y-102290000D03*
X143075000Y-102290000D03*
X147005000Y-112510000D03*
X143075000Y-112510000D03*
%TD*%
D28*
%TO.C,D2*%
X154900000Y-109800000D03*
X153600000Y-109800000D03*
X154250000Y-111800000D03*
%TD*%
D13*
%TO.C,C2*%
X163000000Y-121950000D03*
X163000000Y-120400000D03*
%TD*%
D23*
%TO.C,H3*%
X142200000Y-122200000D03*
%TD*%
%TO.C,H1*%
X142200000Y-98200000D03*
%TD*%
D17*
%TO.C,R6*%
X153000000Y-102350000D03*
X153000000Y-100700000D03*
%TD*%
D23*
%TO.C,H4*%
X166200000Y-122200000D03*
%TD*%
D29*
%TO.C,U1*%
X162595000Y-118800000D03*
X163230000Y-118800000D03*
X163865000Y-118800000D03*
X164500000Y-118800000D03*
X165135000Y-118800000D03*
X165770000Y-118800000D03*
X166405000Y-118800000D03*
X167040000Y-118800000D03*
X167040000Y-113600000D03*
X166405000Y-113600000D03*
X165770000Y-113600000D03*
X165135000Y-113600000D03*
X164500000Y-113600000D03*
X163865000Y-113600000D03*
X163230000Y-113600000D03*
X162595000Y-113600000D03*
%TD*%
D24*
%TO.C,J4*%
X161870000Y-104510000D03*
X161870000Y-110290000D03*
%TD*%
%TO.C,J2*%
X157090000Y-117895000D03*
X151310000Y-117895000D03*
%TD*%
M02*
