%TF.GenerationSoftware,KiCad,Pcbnew,8.0.7*%
%TF.CreationDate,2024-12-28T17:49:01+01:00*%
%TF.ProjectId,usb-c-power-meter,7573622d-632d-4706-9f77-65722d6d6574,rev?*%
%TF.SameCoordinates,Original*%
%TF.FileFunction,Copper,L1,Top*%
%TF.FilePolarity,Positive*%
%FSLAX46Y46*%
G04 Gerber Fmt 4.6, Leading zero omitted, Abs format (unit mm)*
G04 Created by KiCad (PCBNEW 8.0.7) date 2024-12-28 17:49:01*
%MOMM*%
%LPD*%
G01*
G04 APERTURE LIST*
G04 Aperture macros list*
%AMRoundRect*
0 Rectangle with rounded corners*
0 $1 Rounding radius*
0 $2 $3 $4 $5 $6 $7 $8 $9 X,Y pos of 4 corners*
0 Add a 4 corners polygon primitive as box body*
4,1,4,$2,$3,$4,$5,$6,$7,$8,$9,$2,$3,0*
0 Add four circle primitives for the rounded corners*
1,1,$1+$1,$2,$3*
1,1,$1+$1,$4,$5*
1,1,$1+$1,$6,$7*
1,1,$1+$1,$8,$9*
0 Add four rect primitives between the rounded corners*
20,1,$1+$1,$2,$3,$4,$5,0*
20,1,$1+$1,$4,$5,$6,$7,0*
20,1,$1+$1,$6,$7,$8,$9,0*
20,1,$1+$1,$8,$9,$2,$3,0*%
G04 Aperture macros list end*
%TA.AperFunction,SMDPad,CuDef*%
%ADD10RoundRect,0.225000X0.225000X0.250000X-0.225000X0.250000X-0.225000X-0.250000X0.225000X-0.250000X0*%
%TD*%
%TA.AperFunction,SMDPad,CuDef*%
%ADD11RoundRect,0.150000X0.825000X0.150000X-0.825000X0.150000X-0.825000X-0.150000X0.825000X-0.150000X0*%
%TD*%
%TA.AperFunction,SMDPad,CuDef*%
%ADD12RoundRect,0.150000X-0.512500X-0.150000X0.512500X-0.150000X0.512500X0.150000X-0.512500X0.150000X0*%
%TD*%
%TA.AperFunction,SMDPad,CuDef*%
%ADD13RoundRect,0.225000X0.250000X-0.225000X0.250000X0.225000X-0.250000X0.225000X-0.250000X-0.225000X0*%
%TD*%
%TA.AperFunction,ComponentPad*%
%ADD14R,1.700000X1.700000*%
%TD*%
%TA.AperFunction,ComponentPad*%
%ADD15O,1.700000X1.700000*%
%TD*%
%TA.AperFunction,SMDPad,CuDef*%
%ADD16RoundRect,0.200000X0.200000X0.275000X-0.200000X0.275000X-0.200000X-0.275000X0.200000X-0.275000X0*%
%TD*%
%TA.AperFunction,SMDPad,CuDef*%
%ADD17RoundRect,0.200000X0.275000X-0.200000X0.275000X0.200000X-0.275000X0.200000X-0.275000X-0.200000X0*%
%TD*%
%TA.AperFunction,SMDPad,CuDef*%
%ADD18RoundRect,0.050000X0.100000X0.152000X-0.100000X0.152000X-0.100000X-0.152000X0.100000X-0.152000X0*%
%TD*%
%TA.AperFunction,SMDPad,CuDef*%
%ADD19RoundRect,0.050000X0.050000X0.050000X-0.050000X0.050000X-0.050000X-0.050000X0.050000X-0.050000X0*%
%TD*%
%TA.AperFunction,SMDPad,CuDef*%
%ADD20RoundRect,0.250000X-0.475000X0.250000X-0.475000X-0.250000X0.475000X-0.250000X0.475000X0.250000X0*%
%TD*%
%TA.AperFunction,SMDPad,CuDef*%
%ADD21RoundRect,0.250000X-0.650000X0.325000X-0.650000X-0.325000X0.650000X-0.325000X0.650000X0.325000X0*%
%TD*%
%TA.AperFunction,SMDPad,CuDef*%
%ADD22RoundRect,0.225000X0.375000X-0.225000X0.375000X0.225000X-0.375000X0.225000X-0.375000X-0.225000X0*%
%TD*%
%TA.AperFunction,SMDPad,CuDef*%
%ADD23RoundRect,0.150000X-0.425000X0.150000X-0.425000X-0.150000X0.425000X-0.150000X0.425000X0.150000X0*%
%TD*%
%TA.AperFunction,SMDPad,CuDef*%
%ADD24RoundRect,0.075000X-0.500000X0.075000X-0.500000X-0.075000X0.500000X-0.075000X0.500000X0.075000X0*%
%TD*%
%TA.AperFunction,SMDPad,CuDef*%
%ADD25RoundRect,0.250000X-0.750000X0.840000X-0.750000X-0.840000X0.750000X-0.840000X0.750000X0.840000X0*%
%TD*%
%TA.AperFunction,SMDPad,CuDef*%
%ADD26RoundRect,0.112500X0.112500X0.237500X-0.112500X0.237500X-0.112500X-0.237500X0.112500X-0.237500X0*%
%TD*%
%TA.AperFunction,SMDPad,CuDef*%
%ADD27R,0.400000X1.200000*%
%TD*%
%TA.AperFunction,ViaPad*%
%ADD28C,0.450000*%
%TD*%
%TA.AperFunction,Conductor*%
%ADD29C,0.200000*%
%TD*%
%TA.AperFunction,Conductor*%
%ADD30C,0.600000*%
%TD*%
G04 APERTURE END LIST*
D10*
%TO.P,C6,1*%
%TO.N,GND*%
X160250000Y-123100000D03*
%TO.P,C6,2*%
%TO.N,+3.3V*%
X158700000Y-123100000D03*
%TD*%
D11*
%TO.P,U4,1,VCC*%
%TO.N,+3.3V*%
X156675000Y-123105000D03*
%TO.P,U4,2,PA6*%
%TO.N,/TxD*%
X156675000Y-121835000D03*
%TO.P,U4,3,PA7*%
%TO.N,/RxD*%
X156675000Y-120565000D03*
%TO.P,U4,4,PA1*%
%TO.N,/I2C_SDA*%
X156675000Y-119295000D03*
%TO.P,U4,5,PA2*%
%TO.N,/I2C_SCL*%
X151725000Y-119295000D03*
%TO.P,U4,6,~{RESET}/PA0*%
%TO.N,Net-(U4-~{RESET}{slash}PA0)*%
X151725000Y-120565000D03*
%TO.P,U4,7,PA3*%
%TO.N,/INTn_INA*%
X151725000Y-121835000D03*
%TO.P,U4,8,GND*%
%TO.N,GND*%
X151725000Y-123105000D03*
%TD*%
D12*
%TO.P,U2,1,IN*%
%TO.N,Net-(D1-A)*%
X155862500Y-113250000D03*
%TO.P,U2,2,GND*%
%TO.N,GND*%
X155862500Y-114200000D03*
%TO.P,U2,3,NC*%
%TO.N,unconnected-(U2-NC-Pad3)*%
X155862500Y-115150000D03*
%TO.P,U2,4,NC*%
%TO.N,unconnected-(U2-NC-Pad4)*%
X158137500Y-115150000D03*
%TO.P,U2,5,OUT*%
%TO.N,+3.3V*%
X158137500Y-113250000D03*
%TD*%
D13*
%TO.P,C1,1*%
%TO.N,+3.3V*%
X156200000Y-103300000D03*
%TO.P,C1,2*%
%TO.N,GND*%
X156200000Y-101750000D03*
%TD*%
D10*
%TO.P,C4,1*%
%TO.N,+3.3V*%
X166769000Y-111440000D03*
%TO.P,C4,2*%
%TO.N,GND*%
X165219000Y-111440000D03*
%TD*%
D14*
%TO.P,J3,1,Pin_1*%
%TO.N,GND*%
X150390000Y-98200000D03*
D15*
%TO.P,J3,2,Pin_2*%
%TO.N,+3.3V*%
X152930000Y-98200000D03*
%TO.P,J3,3,Pin_3*%
%TO.N,/I2C_SCL*%
X155470000Y-98200000D03*
%TO.P,J3,4,Pin_4*%
%TO.N,/I2C_SDA*%
X158010000Y-98200000D03*
%TD*%
D16*
%TO.P,R8,1*%
%TO.N,/UPDI*%
X163821000Y-111440000D03*
%TO.P,R8,2*%
%TO.N,+3.3V*%
X162171000Y-111440000D03*
%TD*%
D17*
%TO.P,R7,1*%
%TO.N,/I2C_SDA*%
X151500000Y-102350000D03*
%TO.P,R7,2*%
%TO.N,+3.3V*%
X151500000Y-100700000D03*
%TD*%
D16*
%TO.P,R9,1*%
%TO.N,/UPDI*%
X160290400Y-117942400D03*
%TO.P,R9,2*%
%TO.N,Net-(U4-~{RESET}{slash}PA0)*%
X158640400Y-117942400D03*
%TD*%
D18*
%TO.P,U3,A1,IN-*%
%TO.N,/VBUS2*%
X154587000Y-105000000D03*
%TO.P,U3,A3,IN+*%
%TO.N,/VBUS1*%
X153813000Y-105000000D03*
D19*
%TO.P,U3,B1,GND*%
%TO.N,GND*%
X154600000Y-104498000D03*
%TO.P,U3,B2,A0*%
X154200000Y-104498000D03*
%TO.P,U3,B3,SDA*%
%TO.N,/I2C_SDA*%
X153800000Y-104498000D03*
%TO.P,U3,C1,VS*%
%TO.N,+3.3V*%
X154600000Y-104098000D03*
%TO.P,U3,C2,ALERT*%
%TO.N,/INTn_INA*%
X154200000Y-104098000D03*
%TO.P,U3,C3,SCL*%
%TO.N,/I2C_SCL*%
X153800000Y-104098000D03*
%TD*%
D20*
%TO.P,C5,1*%
%TO.N,+3.3V*%
X160062800Y-113268800D03*
%TO.P,C5,2*%
%TO.N,GND*%
X160062800Y-115168800D03*
%TD*%
D21*
%TO.P,C3,1*%
%TO.N,Net-(D1-A)*%
X153789000Y-113345000D03*
%TO.P,C3,2*%
%TO.N,GND*%
X153789000Y-116295000D03*
%TD*%
D17*
%TO.P,R5,1*%
%TO.N,/INTn_INA*%
X154500000Y-102350000D03*
%TO.P,R5,2*%
%TO.N,+3.3V*%
X154500000Y-100700000D03*
%TD*%
D22*
%TO.P,D3,1,K*%
%TO.N,Net-(D3-K)*%
X163441000Y-109916000D03*
%TO.P,D3,2,A*%
%TO.N,/UPDI*%
X163441000Y-106616000D03*
%TD*%
D23*
%TO.P,J1,A1,GND*%
%TO.N,GND*%
X147580000Y-104200000D03*
%TO.P,J1,A4,VBUS*%
%TO.N,/VBUS1*%
X147580000Y-105000000D03*
D24*
%TO.P,J1,A5,CC1*%
%TO.N,/CC1*%
X147580000Y-106150000D03*
%TO.P,J1,A6,D+*%
%TO.N,/AD+*%
X147580000Y-107150000D03*
%TO.P,J1,A7,D-*%
%TO.N,/AD-*%
X147580000Y-107650000D03*
%TO.P,J1,A8,SBU1*%
%TO.N,unconnected-(J1-SBU1-PadA8)*%
X147580000Y-108650000D03*
D23*
%TO.P,J1,A9,VBUS*%
%TO.N,/VBUS1*%
X147580000Y-109800000D03*
%TO.P,J1,A12,GND*%
%TO.N,GND*%
X147580000Y-110600000D03*
%TO.P,J1,B1,GND*%
X147580000Y-110600000D03*
%TO.P,J1,B4,VBUS*%
%TO.N,/VBUS1*%
X147580000Y-109800000D03*
D24*
%TO.P,J1,B5,CC2*%
%TO.N,/CC2*%
X147580000Y-109150000D03*
%TO.P,J1,B6,D+*%
%TO.N,/BD+*%
X147580000Y-108150000D03*
%TO.P,J1,B7,D-*%
%TO.N,/BD-*%
X147580000Y-106650000D03*
%TO.P,J1,B8,SBU2*%
%TO.N,unconnected-(J1-SBU2-PadB8)*%
X147580000Y-105650000D03*
D23*
%TO.P,J1,B9,VBUS*%
%TO.N,/VBUS1*%
X147580000Y-105000000D03*
%TO.P,J1,B12,GND*%
%TO.N,GND*%
X147580000Y-104200000D03*
D25*
%TO.P,J1,S1,SHIELD*%
X147005000Y-102290000D03*
X143075000Y-102290000D03*
X147005000Y-112510000D03*
X143075000Y-112510000D03*
%TD*%
D26*
%TO.P,D2,1,K*%
%TO.N,/VBUS2*%
X154900000Y-109800000D03*
%TO.P,D2,2,K*%
%TO.N,/VBUS1*%
X153600000Y-109800000D03*
%TO.P,D2,3,A*%
%TO.N,Net-(D1-A)*%
X154250000Y-111800000D03*
%TD*%
D13*
%TO.P,C2,1*%
%TO.N,GND*%
X163000000Y-121950000D03*
%TO.P,C2,2*%
%TO.N,+3.3V*%
X163000000Y-120400000D03*
%TD*%
D17*
%TO.P,R6,1*%
%TO.N,/I2C_SCL*%
X153000000Y-102350000D03*
%TO.P,R6,2*%
%TO.N,+3.3V*%
X153000000Y-100700000D03*
%TD*%
D27*
%TO.P,U1,1,TXD*%
%TO.N,/TxD*%
X162595000Y-118800000D03*
%TO.P,U1,2,~{RTS}*%
%TO.N,unconnected-(U1-~{RTS}-Pad2)*%
X163230000Y-118800000D03*
%TO.P,U1,3,VCCIO*%
%TO.N,+3.3V*%
X163865000Y-118800000D03*
%TO.P,U1,4,RXD*%
%TO.N,/RxD*%
X164500000Y-118800000D03*
%TO.P,U1,5,GND*%
%TO.N,GND*%
X165135000Y-118800000D03*
%TO.P,U1,6,~{CTS}*%
%TO.N,unconnected-(U1-~{CTS}-Pad6)*%
X165770000Y-118800000D03*
%TO.P,U1,7,CBUS2*%
%TO.N,unconnected-(U1-CBUS2-Pad7)*%
X166405000Y-118800000D03*
%TO.P,U1,8,USBDP*%
%TO.N,/D+*%
X167040000Y-118800000D03*
%TO.P,U1,9,USBDM*%
%TO.N,/D-*%
X167040000Y-113600000D03*
%TO.P,U1,10,3V3OUT*%
%TO.N,unconnected-(U1-3V3OUT-Pad10)*%
X166405000Y-113600000D03*
%TO.P,U1,11,~{RESET}*%
%TO.N,+3.3V*%
X165770000Y-113600000D03*
%TO.P,U1,12,VCC*%
X165135000Y-113600000D03*
%TO.P,U1,13,GND*%
%TO.N,GND*%
X164500000Y-113600000D03*
%TO.P,U1,14,CBUS1*%
%TO.N,/UPDI*%
X163865000Y-113600000D03*
%TO.P,U1,15,CBUS0*%
%TO.N,Net-(D3-K)*%
X163230000Y-113600000D03*
%TO.P,U1,16,CBUS3*%
%TO.N,unconnected-(U1-CBUS3-Pad16)*%
X162595000Y-113600000D03*
%TD*%
D28*
%TO.N,+3.3V*%
X161500000Y-116800000D03*
X161500000Y-120400000D03*
%TO.N,Net-(D1-A)*%
X150500000Y-111800000D03*
%TO.N,/VBUS2*%
X159200000Y-109800000D03*
X158200000Y-105000000D03*
X158200000Y-109800000D03*
X159200000Y-105000000D03*
X157200000Y-109800000D03*
X157200000Y-105000000D03*
%TO.N,/I2C_SDA*%
X143629000Y-115600000D03*
X150300000Y-102400000D03*
%TO.N,/I2C_SCL*%
X153000000Y-103500000D03*
X144200000Y-116200000D03*
%TO.N,/INTn_INA*%
X154500000Y-103300000D03*
X145200000Y-116800000D03*
%TO.N,/BD+*%
X149200000Y-108800000D03*
%TO.N,/AD+*%
X149200000Y-106900000D03*
%TO.N,/CC1*%
X150200000Y-106100000D03*
%TO.N,/CC2*%
X150100000Y-108700000D03*
%TO.N,/D-*%
X166997000Y-112456000D03*
%TO.N,/D+*%
X166997000Y-119949000D03*
%TO.N,/AD-*%
X149200000Y-107900000D03*
%TO.N,/BD-*%
X149200000Y-106000000D03*
%TO.N,GND*%
X146550000Y-123124000D03*
X143121000Y-100264000D03*
X157726000Y-103693000D03*
X147058000Y-100264000D03*
X161500000Y-123100000D03*
X147058000Y-114615000D03*
X163000000Y-123200000D03*
X143095600Y-114742000D03*
X165135000Y-119949000D03*
X157065600Y-112100400D03*
%TD*%
D29*
%TO.N,+3.3V*%
X166547000Y-112269603D02*
X166547000Y-112271000D01*
X163865000Y-118800000D02*
X163865000Y-120135000D01*
X163600000Y-120400000D02*
X163000000Y-120400000D01*
X160062800Y-113878400D02*
X160418400Y-114234000D01*
X158137500Y-113250000D02*
X160044000Y-113250000D01*
X163500000Y-101600000D02*
X163500000Y-104768000D01*
X166769000Y-111440000D02*
X166769000Y-112047603D01*
X160044000Y-113250000D02*
X160044000Y-112576400D01*
X158700000Y-122300000D02*
X160600000Y-120400000D01*
X160418400Y-114234000D02*
X161129600Y-114234000D01*
X155924000Y-104098000D02*
X156200000Y-103822000D01*
X166547000Y-112271000D02*
X165770000Y-113048000D01*
X163865000Y-120135000D02*
X163600000Y-120400000D01*
X154500000Y-100700000D02*
X155400000Y-100700000D01*
X162600000Y-100700000D02*
X155400000Y-100700000D01*
X162171000Y-111440000D02*
X161663000Y-111440000D01*
X161663000Y-111440000D02*
X161028000Y-110805000D01*
X161028000Y-110805000D02*
X161028000Y-107223600D01*
X163500000Y-101600000D02*
X162600000Y-100700000D01*
X166769000Y-112047603D02*
X166547000Y-112269603D01*
X166769000Y-108037000D02*
X166769000Y-111440000D01*
X161129600Y-114234000D02*
X161500000Y-114604400D01*
X152930000Y-98200000D02*
X152930000Y-100630000D01*
X161028000Y-107223600D02*
X163500000Y-104751600D01*
X154600000Y-104098000D02*
X155924000Y-104098000D01*
X158695000Y-123105000D02*
X158700000Y-123100000D01*
X161500000Y-114604400D02*
X161500000Y-116800000D01*
X156200000Y-103300000D02*
X155400000Y-102500000D01*
X156675000Y-123105000D02*
X158695000Y-123105000D01*
X152930000Y-100630000D02*
X153000000Y-100700000D01*
X161180400Y-111440000D02*
X161663000Y-111440000D01*
X165770000Y-113048000D02*
X165770000Y-113600000D01*
X160044000Y-112576400D02*
X161180400Y-111440000D01*
X155400000Y-102500000D02*
X155400000Y-100700000D01*
X163500000Y-104768000D02*
X166769000Y-108037000D01*
X160600000Y-120400000D02*
X161500000Y-120400000D01*
X165135000Y-113600000D02*
X165770000Y-113600000D01*
X160062800Y-113268800D02*
X160062800Y-113878400D01*
X160062800Y-113268800D02*
X160044000Y-113250000D01*
X156200000Y-103822000D02*
X156200000Y-103300000D01*
X161500000Y-120400000D02*
X163000000Y-120400000D01*
X163500000Y-104751600D02*
X163500000Y-101600000D01*
X153000000Y-100700000D02*
X154500000Y-100700000D01*
X158700000Y-123100000D02*
X158700000Y-122300000D01*
X151500000Y-100700000D02*
X153000000Y-100700000D01*
%TO.N,Net-(D1-A)*%
X154250000Y-111800000D02*
X154250000Y-112884000D01*
X150800000Y-111800000D02*
X150500000Y-111800000D01*
X155837500Y-113225000D02*
X155862500Y-113250000D01*
X153884000Y-113250000D02*
X153789000Y-113345000D01*
X153789000Y-113345000D02*
X152345000Y-113345000D01*
X155862500Y-113250000D02*
X153884000Y-113250000D01*
X154250000Y-112884000D02*
X153789000Y-113345000D01*
X152345000Y-113345000D02*
X150800000Y-111800000D01*
%TO.N,/I2C_SDA*%
X153220182Y-104498000D02*
X153800000Y-104498000D01*
X151500000Y-102350000D02*
X151500000Y-102777818D01*
X151500000Y-102777818D02*
X153220182Y-104498000D01*
X154913000Y-119295000D02*
X156675000Y-119295000D01*
X151450000Y-102400000D02*
X151500000Y-102350000D01*
X150300000Y-102400000D02*
X151450000Y-102400000D01*
X143629000Y-115600000D02*
X151218000Y-115600000D01*
X151218000Y-115600000D02*
X154913000Y-119295000D01*
%TO.N,/I2C_SCL*%
X153000000Y-103600000D02*
X153498000Y-104098000D01*
X153000000Y-102350000D02*
X153000000Y-103500000D01*
X153000000Y-103500000D02*
X153000000Y-103600000D01*
X151725000Y-119295000D02*
X150195000Y-119295000D01*
X147100000Y-116200000D02*
X144200000Y-116200000D01*
X153498000Y-104098000D02*
X153800000Y-104098000D01*
X150195000Y-119295000D02*
X147100000Y-116200000D01*
%TO.N,/INTn_INA*%
X154500000Y-103300000D02*
X154200000Y-103600000D01*
X151725000Y-121835000D02*
X150535000Y-121835000D01*
X154500000Y-102350000D02*
X154500000Y-103300000D01*
X145500000Y-116800000D02*
X145200000Y-116800000D01*
X150535000Y-121835000D02*
X145500000Y-116800000D01*
X154200000Y-103600000D02*
X154200000Y-104098000D01*
%TO.N,/UPDI*%
X163821000Y-111440000D02*
X163821000Y-111820000D01*
X163821000Y-111820000D02*
X163865000Y-111864000D01*
X163441000Y-106616000D02*
X164123000Y-106616000D01*
X161282000Y-117942400D02*
X163865000Y-115359400D01*
X164123000Y-106616000D02*
X164457000Y-106950000D01*
X164203000Y-111440000D02*
X163821000Y-111440000D01*
X164457000Y-111186000D02*
X164203000Y-111440000D01*
X160290400Y-117942400D02*
X161282000Y-117942400D01*
X163865000Y-115359400D02*
X163865000Y-113600000D01*
X163865000Y-111864000D02*
X163865000Y-113600000D01*
X163900000Y-113565000D02*
X163865000Y-113600000D01*
X164457000Y-106950000D02*
X164457000Y-111186000D01*
%TO.N,Net-(D3-K)*%
X163441000Y-109916000D02*
X163221000Y-110136000D01*
X163221000Y-113591000D02*
X163230000Y-113600000D01*
X163221000Y-110136000D02*
X163221000Y-113591000D01*
%TO.N,/BD+*%
X148550000Y-108150000D02*
X149200000Y-108800000D01*
X147580000Y-108150000D02*
X148550000Y-108150000D01*
%TO.N,/AD+*%
X149200000Y-106900000D02*
X148950000Y-107150000D01*
X148950000Y-107150000D02*
X147580000Y-107150000D01*
%TO.N,/CC1*%
X148972182Y-105450000D02*
X149550000Y-105450000D01*
X147580000Y-106150000D02*
X148272182Y-106150000D01*
X149550000Y-105450000D02*
X150200000Y-106100000D01*
X148272182Y-106150000D02*
X148972182Y-105450000D01*
%TO.N,/CC2*%
X147580000Y-109150000D02*
X148772182Y-109150000D01*
X149450000Y-109350000D02*
X150100000Y-108700000D01*
X148972182Y-109350000D02*
X149450000Y-109350000D01*
X148772182Y-109150000D02*
X148972182Y-109350000D01*
%TO.N,/D-*%
X166997000Y-112456000D02*
X166997000Y-113557000D01*
X166997000Y-113557000D02*
X167040000Y-113600000D01*
%TO.N,/D+*%
X166997000Y-119949000D02*
X166997000Y-118843000D01*
X166997000Y-118843000D02*
X167040000Y-118800000D01*
%TO.N,/RxD*%
X164365000Y-117900000D02*
X164500000Y-118035000D01*
X159303628Y-120565000D02*
X161968628Y-117900000D01*
X161968628Y-117900000D02*
X164365000Y-117900000D01*
X164500000Y-118035000D02*
X164500000Y-118800000D01*
X156675000Y-120565000D02*
X159303628Y-120565000D01*
%TO.N,/TxD*%
X158599314Y-121835000D02*
X161634314Y-118800000D01*
X156675000Y-121835000D02*
X158599314Y-121835000D01*
X161634314Y-118800000D02*
X162595000Y-118800000D01*
%TO.N,/AD-*%
X148950000Y-107650000D02*
X147580000Y-107650000D01*
X149200000Y-107900000D02*
X148950000Y-107650000D01*
%TO.N,/BD-*%
X147580000Y-106650000D02*
X148550000Y-106650000D01*
X148550000Y-106650000D02*
X149200000Y-106000000D01*
%TO.N,GND*%
X157065600Y-114200000D02*
X157065600Y-112100400D01*
D30*
X143075000Y-114721400D02*
X143075000Y-112510000D01*
X147005000Y-114562000D02*
X147058000Y-114615000D01*
X147580000Y-102865000D02*
X147005000Y-102290000D01*
X143075000Y-102290000D02*
X143075000Y-100310000D01*
X147005000Y-112510000D02*
X147005000Y-114562000D01*
D29*
X157030696Y-102580696D02*
X157030696Y-103693000D01*
D30*
X143095600Y-114742000D02*
X143075000Y-114721400D01*
D29*
X164500000Y-114400000D02*
X165135000Y-115035000D01*
X143075000Y-100310000D02*
X143121000Y-100264000D01*
X154200000Y-104498000D02*
X154600000Y-104498000D01*
X153789000Y-115123000D02*
X153789000Y-116295000D01*
X156200000Y-101750000D02*
X157030696Y-102580696D01*
X163000000Y-121950000D02*
X163000000Y-123200000D01*
X165135000Y-119949000D02*
X165135000Y-118800000D01*
X151725000Y-123105000D02*
X146569000Y-123105000D01*
X160250000Y-123100000D02*
X161500000Y-123100000D01*
X146569000Y-123105000D02*
X146550000Y-123124000D01*
X155862500Y-114200000D02*
X157065600Y-114200000D01*
D30*
X147580000Y-104200000D02*
X147580000Y-102865000D01*
D29*
X157030696Y-103693000D02*
X157726000Y-103693000D01*
X164500000Y-113600000D02*
X164500000Y-114400000D01*
X165219000Y-111440000D02*
X165219000Y-112075000D01*
D30*
X147005000Y-102290000D02*
X147005000Y-100317000D01*
X147580000Y-111935000D02*
X147005000Y-112510000D01*
D29*
X165219000Y-112075000D02*
X164500000Y-112794000D01*
X156225696Y-104498000D02*
X157030696Y-103693000D01*
D30*
X147580000Y-110600000D02*
X147580000Y-111935000D01*
D29*
X159774800Y-114200000D02*
X160062800Y-114488000D01*
X154712000Y-114200000D02*
X153789000Y-115123000D01*
X157065600Y-114200000D02*
X159774800Y-114200000D01*
D30*
X147005000Y-100317000D02*
X147058000Y-100264000D01*
D29*
X164500000Y-112794000D02*
X164500000Y-113600000D01*
X165135000Y-115035000D02*
X165135000Y-118800000D01*
X160062800Y-114488000D02*
X160062800Y-115168800D01*
X155862500Y-114200000D02*
X154712000Y-114200000D01*
X154600000Y-104498000D02*
X156225696Y-104498000D01*
%TO.N,Net-(U4-~{RESET}{slash}PA0)*%
X151725000Y-120565000D02*
X153808000Y-120565000D01*
X157633800Y-119965000D02*
X154408000Y-119965000D01*
X158640400Y-118958400D02*
X157633800Y-119965000D01*
X158640400Y-117942400D02*
X158640400Y-118958400D01*
X153808000Y-120565000D02*
X154408000Y-119965000D01*
%TD*%
%TA.AperFunction,Conductor*%
%TO.N,/VBUS1*%
G36*
X153054309Y-104619685D02*
G01*
X153074951Y-104636319D01*
X153106608Y-104667976D01*
X153180300Y-104698500D01*
X153180302Y-104698500D01*
X153247138Y-104698500D01*
X153314177Y-104718185D01*
X153334819Y-104734819D01*
X153400000Y-104800000D01*
X153876000Y-104800000D01*
X153943039Y-104819685D01*
X153988794Y-104872489D01*
X154000000Y-104924000D01*
X154000000Y-110076000D01*
X153980315Y-110143039D01*
X153927511Y-110188794D01*
X153876000Y-110200000D01*
X148040842Y-110200000D01*
X148030664Y-110199500D01*
X148029674Y-110199500D01*
X147130326Y-110199500D01*
X147124235Y-110199500D01*
X147124235Y-110196679D01*
X147067440Y-110185872D01*
X147016760Y-110137776D01*
X147000000Y-110075523D01*
X147000000Y-109524500D01*
X147019685Y-109457461D01*
X147072489Y-109411706D01*
X147124000Y-109400500D01*
X148097286Y-109400500D01*
X148097287Y-109400499D01*
X148114502Y-109397075D01*
X148148474Y-109390318D01*
X148148474Y-109390317D01*
X148148477Y-109390317D01*
X148176791Y-109371397D01*
X148243468Y-109350520D01*
X148245682Y-109350500D01*
X148637770Y-109350500D01*
X148704809Y-109370185D01*
X148725451Y-109386819D01*
X148858608Y-109519976D01*
X148932300Y-109550500D01*
X148932302Y-109550500D01*
X149489880Y-109550500D01*
X149489882Y-109550500D01*
X149563574Y-109519976D01*
X149993757Y-109089791D01*
X150055078Y-109056308D01*
X150090240Y-109055304D01*
X150090240Y-109054869D01*
X150100002Y-109054869D01*
X150209658Y-109037501D01*
X150209659Y-109037500D01*
X150209661Y-109037500D01*
X150308587Y-108987095D01*
X150387095Y-108908587D01*
X150437500Y-108809661D01*
X150437500Y-108809659D01*
X150437501Y-108809658D01*
X150454869Y-108700002D01*
X150454869Y-108699997D01*
X150437501Y-108590341D01*
X150420875Y-108557711D01*
X150387095Y-108491413D01*
X150387092Y-108491410D01*
X150387090Y-108491407D01*
X150308592Y-108412909D01*
X150308588Y-108412906D01*
X150308587Y-108412905D01*
X150302263Y-108409683D01*
X150209658Y-108362498D01*
X150100002Y-108345131D01*
X150099998Y-108345131D01*
X149990341Y-108362498D01*
X149891414Y-108412904D01*
X149891407Y-108412909D01*
X149812909Y-108491407D01*
X149812904Y-108491414D01*
X149762499Y-108590340D01*
X149756761Y-108626566D01*
X149726830Y-108689700D01*
X149667518Y-108726630D01*
X149597655Y-108725630D01*
X149539423Y-108687019D01*
X149523807Y-108663465D01*
X149487095Y-108591413D01*
X149487090Y-108591407D01*
X149408592Y-108512909D01*
X149408588Y-108512906D01*
X149408587Y-108512905D01*
X149309661Y-108462500D01*
X149309659Y-108462499D01*
X149305705Y-108460485D01*
X149254909Y-108412511D01*
X149238113Y-108344690D01*
X149260650Y-108278555D01*
X149305705Y-108239515D01*
X149309659Y-108237500D01*
X149309661Y-108237500D01*
X149408587Y-108187095D01*
X149487095Y-108108587D01*
X149537500Y-108009661D01*
X149537500Y-108009659D01*
X149537501Y-108009658D01*
X149554869Y-107900002D01*
X149554869Y-107899997D01*
X149537501Y-107790341D01*
X149513015Y-107742284D01*
X149487095Y-107691413D01*
X149487092Y-107691410D01*
X149487090Y-107691407D01*
X149408592Y-107612909D01*
X149408588Y-107612906D01*
X149408587Y-107612905D01*
X149404743Y-107610946D01*
X149309658Y-107562498D01*
X149200003Y-107545131D01*
X149190242Y-107545131D01*
X149190242Y-107543631D01*
X149131534Y-107536040D01*
X149093756Y-107510206D01*
X149071231Y-107487681D01*
X149037746Y-107426358D01*
X149042730Y-107356666D01*
X149071229Y-107312321D01*
X149074523Y-107309026D01*
X149093755Y-107289794D01*
X149155076Y-107256308D01*
X149190240Y-107255304D01*
X149190240Y-107254869D01*
X149200002Y-107254869D01*
X149309658Y-107237501D01*
X149309659Y-107237500D01*
X149309661Y-107237500D01*
X149408587Y-107187095D01*
X149487095Y-107108587D01*
X149537500Y-107009661D01*
X149537500Y-107009659D01*
X149537501Y-107009658D01*
X149554869Y-106900002D01*
X149554869Y-106899997D01*
X149537501Y-106790341D01*
X149513015Y-106742284D01*
X149487095Y-106691413D01*
X149487092Y-106691410D01*
X149487090Y-106691407D01*
X149408592Y-106612909D01*
X149408588Y-106612906D01*
X149408587Y-106612905D01*
X149309661Y-106562500D01*
X149309659Y-106562499D01*
X149305705Y-106560485D01*
X149254909Y-106512511D01*
X149238113Y-106444690D01*
X149260650Y-106378555D01*
X149305705Y-106339515D01*
X149309659Y-106337500D01*
X149309661Y-106337500D01*
X149408587Y-106287095D01*
X149487095Y-106208587D01*
X149537500Y-106109661D01*
X149539031Y-106100000D01*
X149552564Y-106014552D01*
X149582493Y-105951417D01*
X149641804Y-105914485D01*
X149711667Y-105915483D01*
X149762718Y-105946268D01*
X149810206Y-105993756D01*
X149843691Y-106055079D01*
X149844697Y-106090242D01*
X149845131Y-106090242D01*
X149845131Y-106100002D01*
X149862498Y-106209658D01*
X149912904Y-106308585D01*
X149912909Y-106308592D01*
X149991407Y-106387090D01*
X149991410Y-106387092D01*
X149991413Y-106387095D01*
X150016741Y-106400000D01*
X150090341Y-106437501D01*
X150199998Y-106454869D01*
X150200000Y-106454869D01*
X150200002Y-106454869D01*
X150309658Y-106437501D01*
X150309659Y-106437500D01*
X150309661Y-106437500D01*
X150408587Y-106387095D01*
X150487095Y-106308587D01*
X150537500Y-106209661D01*
X150537500Y-106209659D01*
X150537501Y-106209658D01*
X150554869Y-106100002D01*
X150554869Y-106099997D01*
X150537501Y-105990341D01*
X150499359Y-105915483D01*
X150487095Y-105891413D01*
X150487092Y-105891410D01*
X150487090Y-105891407D01*
X150408592Y-105812909D01*
X150408588Y-105812906D01*
X150408587Y-105812905D01*
X150370457Y-105793477D01*
X150309658Y-105762498D01*
X150200003Y-105745131D01*
X150190242Y-105745131D01*
X150190242Y-105743631D01*
X150131534Y-105736040D01*
X150093756Y-105710206D01*
X149663574Y-105280024D01*
X149589883Y-105249500D01*
X149589882Y-105249500D01*
X149012064Y-105249500D01*
X148932299Y-105249500D01*
X148910715Y-105258440D01*
X148910714Y-105258440D01*
X148858608Y-105280023D01*
X148830407Y-105308224D01*
X148802206Y-105336426D01*
X148802205Y-105336427D01*
X148467181Y-105671450D01*
X148405858Y-105704935D01*
X148336166Y-105699951D01*
X148280233Y-105658079D01*
X148255816Y-105592615D01*
X148255500Y-105583769D01*
X148255500Y-105557713D01*
X148255499Y-105557711D01*
X148245318Y-105506524D01*
X148245317Y-105506523D01*
X148206528Y-105448471D01*
X148148476Y-105409682D01*
X148148475Y-105409681D01*
X148097288Y-105399500D01*
X148097284Y-105399500D01*
X147124000Y-105399500D01*
X147056961Y-105379815D01*
X147011206Y-105327011D01*
X147000000Y-105275500D01*
X147000000Y-104724476D01*
X147019685Y-104657437D01*
X147072489Y-104611682D01*
X147124235Y-104603155D01*
X147124235Y-104600500D01*
X148030664Y-104600500D01*
X148040842Y-104600000D01*
X152987270Y-104600000D01*
X153054309Y-104619685D01*
G37*
%TD.AperFunction*%
%TD*%
%TA.AperFunction,Conductor*%
%TO.N,/VBUS2*%
G36*
X159543039Y-104619685D02*
G01*
X159588794Y-104672489D01*
X159600000Y-104724000D01*
X159600000Y-110076000D01*
X159580315Y-110143039D01*
X159527511Y-110188794D01*
X159476000Y-110200000D01*
X154524000Y-110200000D01*
X154456961Y-110180315D01*
X154411206Y-110127511D01*
X154400000Y-110076000D01*
X154400000Y-104924000D01*
X154419685Y-104856961D01*
X154472489Y-104811206D01*
X154524000Y-104800000D01*
X155000000Y-104800000D01*
X155065181Y-104734819D01*
X155126504Y-104701334D01*
X155152862Y-104698500D01*
X156265576Y-104698500D01*
X156265578Y-104698500D01*
X156339270Y-104667976D01*
X156370927Y-104636319D01*
X156432250Y-104602834D01*
X156458608Y-104600000D01*
X159476000Y-104600000D01*
X159543039Y-104619685D01*
G37*
%TD.AperFunction*%
%TD*%
M02*
